<svg width="359" height="447" viewBox="0 0 359 447" fill="none" xmlns="http://www.w3.org/2000/svg">
<g opacity="0.45">
<path d="M192.544 247.591C195.339 331.301 286.491 374.258 286.491 374.258C209.559 319.929 192.544 247.591 192.544 247.591ZM279.062 349.571C230.326 314.956 215.374 265.36 215.374 265.36C220.608 318.365 279.062 349.571 279.062 349.571Z" fill="#BB0000"/>
<path d="M243.178 364.431C179.133 305.71 170.298 236.26 168.459 190.094C168.459 190.094 339.582 206.719 379.408 165.968C379.408 165.968 242.277 195.148 137.694 151.949C137.694 151.949 134.073 320.07 229.258 393.23C333.166 463.904 461.199 425.097 511.999 310.724C511.999 310.724 374.399 478.143 243.178 364.431Z" fill="white"/>
<path d="M142.834 256.235C113.194 256.235 93.2714 284.071 93.2714 317.342C93.2714 325.304 88.788 332.424 81.847 335.472C61.4368 344.416 48.249 365.414 48.249 388.958C48.249 420.926 72.7862 446.917 102.932 446.917C110.549 446.917 117.94 445.293 124.881 442.064C139.551 435.245 156.359 435.245 171.048 442.064C177.989 445.293 185.38 446.917 192.996 446.917C223.142 446.917 235.167 430.974 239.519 410.337C189.263 381.418 157.935 329.937 142.834 256.235ZM102.932 249.156C120.66 249.156 135.105 233.854 135.105 215.062C135.105 199.219 123.83 160.513 102.932 160.513C82.0346 160.513 70.7602 199.239 70.7602 215.062C70.7602 233.874 85.2049 249.156 102.932 249.156ZM64.3445 296.906C64.3445 281.083 53.0702 242.357 32.1723 242.357C11.2744 242.357 0 281.083 0 296.906C0 315.698 14.4259 331 32.1723 331C49.8998 331 64.3445 315.698 64.3445 296.906Z" fill="#BB0000"/>
<path d="M180.934 15.7562C180.934 15.7562 152.702 -14.4264 123.793 8.75705C94.8853 31.9406 122.33 64.7905 122.33 64.7905L206.56 157.404C229.877 151.207 295.929 158.186 295.929 158.186L180.934 15.7562Z" fill="white"/>
</g>
</svg>
