<svg width="96" height="79" viewBox="0 0 96 79" fill="none" xmlns="http://www.w3.org/2000/svg">
<path d="M36.1022 43.4246C36.6263 58.1061 53.7172 65.6403 53.7172 65.6403C39.2924 56.1117 36.1022 43.4246 36.1022 43.4246ZM52.3243 61.3104C43.1862 55.2394 40.3828 46.541 40.3828 46.541C41.3642 55.8374 52.3243 61.3104 52.3243 61.3104Z" fill="#BB0000"/>
<path d="M45.5958 63.9165C33.5875 53.6176 31.9308 41.4369 31.5861 33.3399C31.5861 33.3399 63.6716 36.2559 71.139 29.1085C71.139 29.1085 45.427 34.2263 25.8176 26.6499C25.8176 26.6499 25.1388 56.1361 42.9859 68.9674C62.4687 81.3627 86.4747 74.5566 95.9998 54.497C95.9998 54.497 70.1998 83.86 45.5958 63.9165Z" fill="white"/>
<path d="M26.7813 44.9405C21.2238 44.9405 17.4884 49.8227 17.4884 55.658C17.4884 57.0544 16.6477 58.303 15.3463 58.8377C11.5194 60.4064 9.04669 64.0891 9.04669 68.2185C9.04669 73.8252 13.6474 78.3837 19.2998 78.3837C20.7279 78.3837 22.1137 78.0988 23.4152 77.5325C26.1658 76.3366 29.3173 76.3366 32.0714 77.5325C33.3729 78.0988 34.7587 78.3837 36.1868 78.3837C41.8392 78.3837 44.0938 75.5874 44.9099 71.9681C35.4868 66.896 29.6128 57.8669 26.7813 44.9405ZM19.2998 43.6989C22.6238 43.6989 25.3321 41.0151 25.3321 37.7194C25.3321 34.9406 23.2182 28.1521 19.2998 28.1521C15.3815 28.1521 13.2675 34.9442 13.2675 37.7194C13.2675 41.0187 15.9759 43.6989 19.2998 43.6989ZM12.0646 52.0738C12.0646 49.2986 9.95066 42.5065 6.0323 42.5065C2.11394 42.5065 0 49.2986 0 52.0738C0 55.3696 2.70486 58.0533 6.0323 58.0533C9.35622 58.0533 12.0646 55.3696 12.0646 52.0738Z" fill="#BB0000"/>
<path d="M33.9252 2.76344C33.9252 2.76344 28.6315 -2.53021 23.2113 1.53587C17.791 5.60196 22.9369 11.3634 22.9369 11.3634L38.7299 27.6067C43.102 26.5198 55.4867 27.7438 55.4867 27.7438L33.9252 2.76344Z" fill="white"/>
</svg>
