<svg width="18" height="18" viewBox="0 0 18 18" fill="none" xmlns="http://www.w3.org/2000/svg">
<g id="play">
<path id="Icon" d="M12.0313 6.9081C13.2474 7.59217 13.8555 7.9342 14.058 8.38364C14.2345 8.7755 14.2345 9.22427 14.058 9.61613C13.8555 10.0656 13.2474 10.4076 12.0313 11.0917L7.32663 13.738C6.1509 14.3994 5.56303 14.7301 5.08151 14.6756C4.66141 14.6281 4.28086 14.4056 4.03352 14.0627C3.75 13.6697 3.75 12.9952 3.75 11.6462V6.35352C3.75 5.00455 3.75 4.33006 4.03352 3.93706C4.28086 3.5942 4.66141 3.37164 5.08151 3.32415C5.56303 3.26972 6.1509 3.60039 7.32663 4.26174L12.0313 6.9081Z" fill="#0095FF" stroke="#0095FF" stroke-width="2" stroke-linecap="round" stroke-linejoin="round"/>
</g>
</svg>
