<svg width="93" height="96" viewBox="0 0 93 96" fill="none" xmlns="http://www.w3.org/2000/svg">
<path d="M21.8397 79.4634C35.5856 91.3141 56.5088 81.6083 58.1076 61.6054C58.2247 60.603 58.1706 59.4866 58.1446 58.524C46.0514 58.9822 33.0896 53.0553 30.0888 42.4149C27.4282 32.8112 36.1908 27.3001 43.3553 31.1238C51.8614 35.7053 58.7851 43.9602 61.101 54.1445C68.7363 53.1498 75.6371 48.9652 78.2059 40.0065C82.5069 24.9085 70.2285 9.57789 57.2556 7.69493C55.8837 7.59205 56.0616 5.27963 57.4335 5.38251C74.9556 5.83728 88.1003 28.3616 79.5036 46.2721C76.1114 53.1975 69.2973 57.0344 61.6902 58.1829C62.604 68.9196 56.5436 79.3355 48.1237 85.0745C38.3576 91.6733 27.7883 88.9597 20.0322 81.9061C18.7772 80.8009 20.6133 78.5119 21.8397 79.4634ZM48.192 39.4749C45.2838 36.7288 41.5758 33.7205 37.4603 33.4119C33.488 33.0634 33.2143 38.9584 33.522 41.4589C33.9423 44.5745 36.4517 46.7851 38.7055 48.4204C43.4404 52.1123 50.6376 54.4724 57.5554 54.4853C56.028 48.607 52.2401 43.52 48.192 39.4749Z" fill="#4184E1"/>
<path d="M14.1027 75.6892C18.1066 74.5743 22.3098 73.727 26.3678 73.7281C28.025 73.7513 27.7325 76.2564 26.103 76.387C22.8445 76.648 19.5837 77.7176 16.466 78.7473C16.9749 80.7058 17.5121 82.8183 18.164 84.7372C18.7316 86.1949 20.1548 88.2222 19.5784 89.9984C19.2902 90.8868 18.5752 91.0859 17.8039 90.9773C15.9472 90.6864 15.356 87.458 14.7603 85.8465C13.8245 83.1985 13.2032 80.625 12.6964 77.8576C12.5275 76.9357 13.2447 75.9281 14.1027 75.6892Z" fill="#4184E1"/>
</svg>
