<svg width="1087" height="746" viewBox="0 0 1087 746" fill="none" xmlns="http://www.w3.org/2000/svg">
<mask id="path-1-inside-1_1_180" fill="white">
<path d="M0 0H1087V98H0V0Z"/>
</mask>
<path d="M0 0H1087V98H0V0Z" fill="#C8E7FF"/>
<path d="M17.709 56H24.0371C27.0449 56 28.9102 54.4473 28.9102 51.9766V51.957C28.9102 50.1504 27.5527 48.7539 25.6875 48.6074V48.4316C27.1328 48.2168 28.2363 46.918 28.2363 45.4336V45.4141C28.2363 43.2461 26.6055 41.9082 23.8711 41.9082H17.709V56ZM23.1191 44.0957C24.5254 44.0957 25.3359 44.7793 25.3359 45.9219V45.9414C25.3359 47.1035 24.4668 47.7676 22.875 47.7676H20.6582V44.0957H23.1191ZM23.2168 49.7109C24.9551 49.7109 25.9023 50.4141 25.9023 51.7227V51.7422C25.9023 53.0801 24.9844 53.8027 23.2852 53.8027H20.6582V49.7109H23.2168ZM31.2762 56H40.6121V53.5684H34.2254V50.0039H40.2508V47.7383H34.2254V44.3398H40.6121V41.9082H31.2762V56ZM43.4176 56H46.2398V46.9863H46.3961L52.9195 56H55.3609V41.9082H52.5387V50.8828H52.3824L45.8785 41.9082H43.4176V56ZM58.4887 56H67.8246V53.5684H61.4379V50.0039H67.4633V47.7383H61.4379V44.3398H67.8246V41.9082H58.4887V56ZM70.6301 56H73.5793V50.4531H79.3117V48.1191H73.5793V44.3398H79.8586V41.9082H70.6301V56ZM82.2832 56H85.2324V41.9082H82.2832V56ZM91.7684 56H94.7176V44.3398H98.9461V41.9082H87.5398V44.3398H91.7684V56ZM106.293 56.3613C109.808 56.3613 111.976 54.5938 111.976 51.8008V51.791C111.976 49.5938 110.677 48.4023 107.699 47.7871L106.205 47.4844C104.545 47.1426 103.861 46.5957 103.861 45.6777V45.668C103.861 44.6133 104.828 43.9492 106.283 43.9395C107.767 43.9395 108.744 44.6426 108.91 45.6484L108.929 45.7656H111.703L111.693 45.6387C111.507 43.2852 109.574 41.5469 106.283 41.5469C103.158 41.5469 100.912 43.2754 100.912 45.8926V45.9023C100.912 48.041 102.171 49.4082 105.101 50.0039L106.586 50.3066C108.334 50.668 109.027 51.1855 109.027 52.1133V52.123C109.027 53.207 107.943 53.959 106.371 53.959C104.72 53.959 103.578 53.2461 103.47 52.1914L103.461 52.0938H100.619L100.629 52.25C100.795 54.75 102.923 56.3613 106.293 56.3613Z" fill="#0095FF"/>
<path d="M575.001 56H584.22V53.5684H577.95V41.9082H575.001V56ZM590.599 56.2246C593.91 56.2246 595.902 54.1348 595.902 50.6289V50.6094C595.902 47.1328 593.88 45.0137 590.599 45.0137C587.318 45.0137 585.296 47.1426 585.296 50.6094V50.6289C585.296 54.125 587.289 56.2246 590.599 56.2246ZM590.599 53.9883C589.076 53.9883 588.216 52.748 588.216 50.6289V50.6094C588.216 48.5098 589.086 47.25 590.599 47.25C592.103 47.25 592.982 48.5098 592.982 50.6094V50.6289C592.982 52.748 592.113 53.9883 590.599 53.9883ZM602.662 56.2246C605.465 56.2246 607.145 54.7207 607.438 52.377L607.448 52.3184H604.811L604.791 52.3574C604.537 53.4316 603.844 53.9883 602.672 53.9883C601.149 53.9883 600.299 52.7871 600.299 50.6094V50.5898C600.299 48.4414 601.139 47.25 602.672 47.25C603.893 47.25 604.606 47.9336 604.791 48.9785L604.801 48.998H607.457V48.9688C607.204 46.5664 605.514 45.0137 602.662 45.0137C599.293 45.0137 597.399 47.0547 597.399 50.5898V50.6094C597.399 54.1836 599.303 56.2246 602.662 56.2246ZM612.314 56.166C613.72 56.166 614.853 55.5703 615.4 54.5742H615.575V56H618.388V48.6562C618.388 46.3613 616.777 45.0137 613.925 45.0137C611.22 45.0137 609.443 46.2637 609.218 48.1484L609.208 48.2363H611.845L611.864 48.1973C612.089 47.5625 612.743 47.2012 613.769 47.2012C614.941 47.2012 615.575 47.7285 615.575 48.6562V49.5449L612.978 49.7012C610.302 49.8574 608.808 50.9902 608.808 52.9238V52.9434C608.808 54.8965 610.263 56.166 612.314 56.166ZM611.591 52.7676V52.748C611.591 51.9668 612.187 51.5078 613.407 51.4297L615.575 51.293V52.084C615.575 53.2168 614.589 54.0859 613.271 54.0859C612.284 54.0859 611.591 53.5879 611.591 52.7676ZM620.979 56H623.83V41.1367H620.979V56ZM631.619 56H634.568V51.5566H637.429C640.398 51.5566 642.38 49.6426 642.38 46.7422V46.7227C642.38 43.8223 640.398 41.9082 637.429 41.9082H631.619V56ZM636.707 44.2422C638.396 44.2422 639.392 45.1309 639.392 46.7324V46.752C639.392 48.3535 638.396 49.252 636.707 49.252H634.568V44.2422H636.707ZM644.61 56H647.461V49.7793C647.461 48.3242 648.262 47.377 649.58 47.377C650.928 47.377 651.553 48.1777 651.553 49.6914V56H654.405V49.0469C654.405 46.4785 653.116 45.0137 650.723 45.0137C649.19 45.0137 648.125 45.7461 647.637 46.9082H647.461V41.1367H644.61V56ZM659.798 56.166C661.204 56.166 662.337 55.5703 662.884 54.5742H663.06V56H665.872V48.6562C665.872 46.3613 664.261 45.0137 661.409 45.0137C658.704 45.0137 656.927 46.2637 656.702 48.1484L656.693 48.2363H659.329L659.349 48.1973C659.573 47.5625 660.228 47.2012 661.253 47.2012C662.425 47.2012 663.06 47.7285 663.06 48.6562V49.5449L660.462 49.7012C657.786 49.8574 656.292 50.9902 656.292 52.9238V52.9434C656.292 54.8965 657.747 56.166 659.798 56.166ZM659.075 52.7676V52.748C659.075 51.9668 659.671 51.5078 660.892 51.4297L663.06 51.293V52.084C663.06 53.2168 662.073 54.0859 660.755 54.0859C659.769 54.0859 659.075 53.5879 659.075 52.7676ZM668.365 56H671.217V49.9844C671.217 48.4609 672.242 47.5332 673.863 47.5332C674.303 47.5332 674.742 47.6016 675.172 47.6992V45.209C674.889 45.1309 674.488 45.0723 674.107 45.0723C672.711 45.0723 671.734 45.7559 671.393 46.918H671.217V45.248H668.365V56ZM676.874 56H679.725V49.5156C679.725 48.2852 680.507 47.377 681.62 47.377C682.733 47.377 683.387 48.0508 683.387 49.2031V56H686.239V49.3887C686.239 48.2266 686.981 47.377 688.134 47.377C689.325 47.377 689.911 48.0312 689.911 49.3301V56H692.762V48.6172C692.762 46.4004 691.425 45.0137 689.286 45.0137C687.782 45.0137 686.532 45.8047 686.044 46.9961H685.868C685.429 45.7559 684.345 45.0137 682.88 45.0137C681.473 45.0137 680.36 45.7168 679.901 46.9277H679.725V45.248H676.874V56ZM698.156 56.166C699.562 56.166 700.695 55.5703 701.242 54.5742H701.418V56H704.23V48.6562C704.23 46.3613 702.619 45.0137 699.767 45.0137C697.062 45.0137 695.285 46.2637 695.06 48.1484L695.05 48.2363H697.687L697.707 48.1973C697.931 47.5625 698.586 47.2012 699.611 47.2012C700.783 47.2012 701.418 47.7285 701.418 48.6562V49.5449L698.82 49.7012C696.144 49.8574 694.65 50.9902 694.65 52.9238V52.9434C694.65 54.8965 696.105 56.166 698.156 56.166ZM697.433 52.7676V52.748C697.433 51.9668 698.029 51.5078 699.25 51.4297L701.418 51.293V52.084C701.418 53.2168 700.431 54.0859 699.113 54.0859C698.127 54.0859 697.433 53.5879 697.433 52.7676ZM711.459 56.2246C714.262 56.2246 715.942 54.7207 716.235 52.377L716.245 52.3184H713.608L713.588 52.3574C713.334 53.4316 712.641 53.9883 711.469 53.9883C709.946 53.9883 709.096 52.7871 709.096 50.6094V50.5898C709.096 48.4414 709.936 47.25 711.469 47.25C712.69 47.25 713.403 47.9336 713.588 48.9785L713.598 48.998H716.254V48.9688C716 46.5664 714.311 45.0137 711.459 45.0137C708.09 45.0137 706.196 47.0547 706.196 50.5898V50.6094C706.196 54.1836 708.1 56.2246 711.459 56.2246ZM719.46 59.7891C722.116 59.7891 723.532 58.832 724.489 55.9902L728.152 45.248H725.144L722.888 53.3926H722.693L720.437 45.248H717.302L721.081 56L720.984 56.4102C720.779 57.25 720.193 57.6406 719.177 57.6406C718.913 57.6406 718.63 57.6309 718.435 57.6113V59.7598C718.767 59.7793 719.128 59.7891 719.46 59.7891Z" fill="#0095FF"/>
<path d="M892.831 56H895.78V50.8438H898.193L900.82 56H904.159L901.191 50.4043C902.802 49.7695 903.739 48.2168 903.739 46.4102V46.3906C903.739 43.6172 901.904 41.9082 898.7 41.9082H892.831V56ZM895.78 48.6953V44.2129H898.339C899.814 44.2129 900.722 45.0918 900.722 46.4492V46.4688C900.722 47.8555 899.853 48.6953 898.378 48.6953H895.78ZM905.354 56H908.361L910.363 52.4453H910.539L912.551 56H915.705L912.297 50.5605L915.686 45.248H912.58L910.676 48.8125H910.5L908.596 45.248H905.324L908.723 50.6777L905.354 56ZM926.287 56H929.92L934.617 41.9082H931.296L928.191 52.7188H928.015L924.9 41.9082H921.589L926.287 56ZM938.145 56.166C939.551 56.166 940.684 55.5703 941.231 54.5742H941.407V56H944.219V48.6562C944.219 46.3613 942.608 45.0137 939.756 45.0137C937.051 45.0137 935.274 46.2637 935.049 48.1484L935.039 48.2363H937.676L937.696 48.1973C937.92 47.5625 938.575 47.2012 939.6 47.2012C940.772 47.2012 941.407 47.7285 941.407 48.6562V49.5449L938.809 49.7012C936.133 49.8574 934.639 50.9902 934.639 52.9238V52.9434C934.639 54.8965 936.094 56.166 938.145 56.166ZM937.422 52.7676V52.748C937.422 51.9668 938.018 51.5078 939.239 51.4297L941.407 51.293V52.084C941.407 53.2168 940.42 54.0859 939.102 54.0859C938.116 54.0859 937.422 53.5879 937.422 52.7676ZM946.81 56H949.661V41.1367H946.81V56ZM957.037 56.2246C960.182 56.2246 961.568 54.4082 961.9 53.0605L961.92 52.9629H959.264L959.234 53.0215C959.039 53.4316 958.346 54.0957 957.096 54.0957C955.582 54.0957 954.635 53.0703 954.605 51.3027H962.008V50.4141C962.008 47.1621 960.055 45.0137 956.92 45.0137C953.785 45.0137 951.783 47.2109 951.783 50.6289V50.6387C951.783 54.0859 953.766 56.2246 957.037 56.2246ZM956.969 47.1523C958.209 47.1523 959.098 47.9531 959.273 49.5156H954.635C954.811 47.9922 955.729 47.1523 956.969 47.1523ZM968.505 56.0391C969.052 56.0391 969.579 55.9805 969.93 55.9121V53.793C969.657 53.8223 969.462 53.8418 969.091 53.8418C968.124 53.8418 967.714 53.4121 967.714 52.4453V47.3965H969.93V45.248H967.714V42.6797H964.833V45.248H963.173V47.3965H964.833V53.0996C964.833 55.1895 965.888 56.0391 968.505 56.0391Z" fill="#0095FF"/>
<path d="M1087 97H0V99H1087V97Z" fill="#C8E7FF" mask="url(#path-1-inside-1_1_180)"/>
<path d="M16.6836 145H18.9785L20.2578 141.191H25.6484L26.918 145H29.2227L24.1348 130.908H21.7715L16.6836 145ZM22.8652 133.379H23.0312L25.0625 139.434H20.8438L22.8652 133.379ZM35.0066 145.205C37.6336 145.205 39.1473 143.789 39.5281 141.729L39.5477 141.641H37.5164L37.4969 141.689C37.1551 142.832 36.3348 143.438 35.0066 143.438C33.2586 143.438 32.1746 142.012 32.1746 139.668V139.648C32.1746 137.363 33.2391 135.957 35.0066 135.957C36.4129 135.957 37.2723 136.738 37.5066 137.783L37.5164 137.812L39.5477 137.803V137.754C39.2547 135.693 37.6629 134.189 34.9969 134.189C31.9012 134.189 30.0164 136.289 30.0164 139.648V139.668C30.0164 143.096 31.9109 145.205 35.0066 145.205ZM46.1129 145.205C48.7398 145.205 50.2535 143.789 50.6344 141.729L50.6539 141.641H48.6227L48.6031 141.689C48.2613 142.832 47.441 143.438 46.1129 143.438C44.3648 143.438 43.2809 142.012 43.2809 139.668V139.648C43.2809 137.363 44.3453 135.957 46.1129 135.957C47.5191 135.957 48.3785 136.738 48.6129 137.783L48.6227 137.812L50.6539 137.803V137.754C50.3609 135.693 48.7691 134.189 46.1031 134.189C43.0074 134.189 41.1227 136.289 41.1227 139.648V139.668C41.1227 143.096 43.0172 145.205 46.1129 145.205ZM57.2094 145.205C59.9242 145.205 61.3891 143.643 61.7406 142.246L61.7602 142.158L59.7191 142.168L59.6801 142.246C59.4262 142.793 58.6156 143.467 57.2582 143.467C55.5102 143.467 54.3969 142.285 54.3578 140.254H61.8773V139.512C61.8773 136.328 60.0609 134.189 57.102 134.189C54.143 134.189 52.2289 136.406 52.2289 139.717V139.727C52.2289 143.086 54.1039 145.205 57.2094 145.205ZM57.1117 135.928C58.5473 135.928 59.6117 136.846 59.7777 138.74H54.3871C54.5727 136.914 55.6664 135.928 57.1117 135.928ZM64.0969 148.535H66.216V143.32H66.3723C66.9387 144.463 68.1789 145.176 69.634 145.176C72.3293 145.176 74.0285 143.066 74.0285 139.707V139.688C74.0285 136.348 72.3098 134.209 69.634 134.209C68.1496 134.209 66.9875 134.902 66.3723 136.064H66.216V134.395H64.0969V148.535ZM69.0383 143.369C67.2707 143.369 66.177 141.973 66.177 139.707V139.688C66.177 137.422 67.2707 136.025 69.0383 136.025C70.8059 136.025 71.8703 137.402 71.8703 139.688V139.707C71.8703 141.982 70.8059 143.369 69.0383 143.369ZM80.2812 145.068C80.6914 145.068 81.082 145.02 81.4238 144.961V143.271C81.1309 143.301 80.9453 143.311 80.623 143.311C79.5781 143.311 79.1484 142.842 79.1484 141.699V136.064H81.4238V134.395H79.1484V131.719H76.9902V134.395H75.3301V136.064H76.9902V142.207C76.9902 144.248 77.9473 145.068 80.2812 145.068ZM87.2957 145.205C89.8152 145.205 91.6902 143.867 91.6902 141.904V141.885C91.6902 140.352 90.7137 139.482 88.6727 139.004L86.993 138.623C85.8016 138.34 85.3133 137.93 85.3133 137.266V137.246C85.3133 136.396 86.1531 135.82 87.3152 135.82C88.5066 135.82 89.2586 136.377 89.4637 137.119V137.139H91.4852V137.129C91.2996 135.4 89.7469 134.189 87.325 134.189C84.9227 134.189 83.2039 135.518 83.2039 137.363V137.373C83.2039 138.926 84.1316 139.834 86.1336 140.293L87.823 140.684C89.0535 140.967 89.5516 141.416 89.5516 142.08V142.1C89.5516 142.969 88.6434 143.564 87.3348 143.564C86.075 143.564 85.3035 143.027 85.0398 142.227L85.0301 142.217H82.9109V142.227C83.116 144.004 84.7371 145.205 87.2957 145.205ZM99.0883 145H101.207V138.486C101.207 137.1 102.155 136.006 103.434 136.006C104.684 136.006 105.475 136.768 105.475 137.979V145H107.584V138.291C107.584 137.012 108.473 136.006 109.821 136.006C111.207 136.006 111.871 136.729 111.871 138.193V145H113.981V137.686C113.981 135.479 112.731 134.189 110.592 134.189C109.118 134.189 107.897 134.941 107.36 136.084H107.194C106.725 134.941 105.7 134.189 104.254 134.189C102.868 134.189 101.832 134.863 101.364 136.025H101.207V134.395H99.0883V145ZM121.132 145.205C124.238 145.205 126.142 143.125 126.142 139.707V139.688C126.142 136.27 124.228 134.189 121.132 134.189C118.027 134.189 116.113 136.279 116.113 139.688V139.707C116.113 143.125 118.017 145.205 121.132 145.205ZM121.132 143.438C119.306 143.438 118.28 142.061 118.28 139.707V139.688C118.28 137.334 119.306 135.957 121.132 135.957C122.948 135.957 123.984 137.334 123.984 139.688V139.707C123.984 142.051 122.948 143.438 121.132 143.438ZM132.229 145.205C134.748 145.205 136.623 143.867 136.623 141.904V141.885C136.623 140.352 135.646 139.482 133.605 139.004L131.926 138.623C130.734 138.34 130.246 137.93 130.246 137.266V137.246C130.246 136.396 131.086 135.82 132.248 135.82C133.439 135.82 134.191 136.377 134.396 137.119V137.139H136.418V137.129C136.232 135.4 134.68 134.189 132.258 134.189C129.855 134.189 128.137 135.518 128.137 137.363V137.373C128.137 138.926 129.064 139.834 131.066 140.293L132.756 140.684C133.986 140.967 134.484 141.416 134.484 142.08V142.1C134.484 142.969 133.576 143.564 132.268 143.564C131.008 143.564 130.236 143.027 129.973 142.227L129.963 142.217H127.844V142.227C128.049 144.004 129.67 145.205 132.229 145.205ZM142.778 145.068C143.188 145.068 143.579 145.02 143.921 144.961V143.271C143.628 143.301 143.442 143.311 143.12 143.311C142.075 143.311 141.645 142.842 141.645 141.699V136.064H143.921V134.395H141.645V131.719H139.487V134.395H137.827V136.064H139.487V142.207C139.487 144.248 140.444 145.068 142.778 145.068ZM152.364 132.5C153.086 132.5 153.692 131.904 153.692 131.182C153.692 130.449 153.086 129.854 152.364 129.854C151.631 129.854 151.036 130.449 151.036 131.182C151.036 131.904 151.631 132.5 152.364 132.5ZM151.299 145H153.409V134.395H151.299V145ZM156.195 145H158.314V138.779C158.314 137.07 159.28 136.006 160.833 136.006C162.386 136.006 163.118 136.875 163.118 138.633V145H165.228V138.135C165.228 135.605 163.919 134.189 161.546 134.189C160.003 134.189 158.988 134.873 158.47 136.006H158.314V134.395H156.195V145ZM171.744 145.205C174.264 145.205 176.139 143.867 176.139 141.904V141.885C176.139 140.352 175.162 139.482 173.121 139.004L171.441 138.623C170.25 138.34 169.762 137.93 169.762 137.266V137.246C169.762 136.396 170.602 135.82 171.764 135.82C172.955 135.82 173.707 136.377 173.912 137.119V137.139H175.934V137.129C175.748 135.4 174.195 134.189 171.773 134.189C169.371 134.189 167.652 135.518 167.652 137.363V137.373C167.652 138.926 168.58 139.834 170.582 140.293L172.271 140.684C173.502 140.967 174 141.416 174 142.08V142.1C174 142.969 173.092 143.564 171.783 143.564C170.523 143.564 169.752 143.027 169.488 142.227L169.479 142.217H167.359V142.227C167.564 144.004 169.186 145.205 171.744 145.205ZM181.903 145.205C183.446 145.205 184.52 144.541 185.028 143.398H185.194V145H187.304V134.395H185.194V140.615C185.194 142.324 184.286 143.389 182.587 143.389C181.034 143.389 180.389 142.52 180.389 140.762V134.395H178.27V141.26C178.27 143.77 179.511 145.205 181.903 145.205ZM190.06 145H192.179V138.662C192.179 137.129 193.283 136.133 194.904 136.133C195.304 136.133 195.666 136.182 196.046 136.26V134.307C195.832 134.258 195.461 134.209 195.119 134.209C193.703 134.209 192.716 134.873 192.336 135.996H192.179V134.395H190.06V145ZM200.6 145.176C202.006 145.176 203.12 144.57 203.745 143.496H203.911V145H206.01V137.744C206.01 135.518 204.506 134.189 201.84 134.189C199.428 134.189 197.758 135.352 197.504 137.09L197.495 137.158H199.536L199.545 137.119C199.799 136.367 200.571 135.938 201.743 135.938C203.178 135.938 203.911 136.582 203.911 137.744V138.682L201.039 138.848C198.51 139.004 197.084 140.107 197.084 142.002V142.021C197.084 143.945 198.579 145.176 200.6 145.176ZM199.194 141.934V141.914C199.194 140.957 199.858 140.43 201.323 140.342L203.911 140.176V141.084C203.911 142.451 202.748 143.486 201.166 143.486C200.024 143.486 199.194 142.91 199.194 141.934ZM208.698 145H210.818V138.779C210.818 137.07 211.784 136.006 213.337 136.006C214.89 136.006 215.622 136.875 215.622 138.633V145H217.732V138.135C217.732 135.605 216.423 134.189 214.05 134.189C212.507 134.189 211.491 134.873 210.974 136.006H210.818V134.395H208.698V145ZM224.854 145.205C227.48 145.205 228.994 143.789 229.375 141.729L229.395 141.641H227.363L227.344 141.689C227.002 142.832 226.182 143.438 224.854 143.438C223.105 143.438 222.021 142.012 222.021 139.668V139.648C222.021 137.363 223.086 135.957 224.854 135.957C226.26 135.957 227.119 136.738 227.354 137.783L227.363 137.812L229.395 137.803V137.754C229.102 135.693 227.51 134.189 224.844 134.189C221.748 134.189 219.863 136.289 219.863 139.648V139.668C219.863 143.096 221.758 145.205 224.854 145.205ZM235.95 145.205C238.665 145.205 240.13 143.643 240.481 142.246L240.501 142.158L238.46 142.168L238.421 142.246C238.167 142.793 237.356 143.467 235.999 143.467C234.251 143.467 233.137 142.285 233.098 140.254H240.618V139.512C240.618 136.328 238.802 134.189 235.843 134.189C232.884 134.189 230.97 136.406 230.97 139.717V139.727C230.97 143.086 232.845 145.205 235.95 145.205ZM235.852 135.928C237.288 135.928 238.352 136.846 238.518 138.74H233.128C233.313 136.914 234.407 135.928 235.852 135.928ZM248.006 148.535H250.125V143.32H250.282C250.848 144.463 252.088 145.176 253.543 145.176C256.239 145.176 257.938 143.066 257.938 139.707V139.688C257.938 136.348 256.219 134.209 253.543 134.209C252.059 134.209 250.897 134.902 250.282 136.064H250.125V134.395H248.006V148.535ZM252.948 143.369C251.18 143.369 250.086 141.973 250.086 139.707V139.688C250.086 137.422 251.18 136.025 252.948 136.025C254.715 136.025 255.78 137.402 255.78 139.688V139.707C255.78 141.982 254.715 143.369 252.948 143.369ZM260.284 145H262.404V130.234H260.284V145ZM268.168 145.176C269.574 145.176 270.688 144.57 271.312 143.496H271.479V145H273.578V137.744C273.578 135.518 272.074 134.189 269.408 134.189C266.996 134.189 265.326 135.352 265.072 137.09L265.062 137.158H267.104L267.113 137.119C267.367 136.367 268.139 135.938 269.311 135.938C270.746 135.938 271.479 136.582 271.479 137.744V138.682L268.607 138.848C266.078 139.004 264.652 140.107 264.652 142.002V142.021C264.652 143.945 266.146 145.176 268.168 145.176ZM266.762 141.934V141.914C266.762 140.957 267.426 140.43 268.891 140.342L271.479 140.176V141.084C271.479 142.451 270.316 143.486 268.734 143.486C267.592 143.486 266.762 142.91 266.762 141.934ZM276.266 145H278.386V138.779C278.386 137.07 279.352 136.006 280.905 136.006C282.458 136.006 283.19 136.875 283.19 138.633V145H285.3V138.135C285.3 135.605 283.991 134.189 281.618 134.189C280.075 134.189 279.059 134.873 278.542 136.006H278.386V134.395H276.266V145ZM291.816 145.205C294.336 145.205 296.211 143.867 296.211 141.904V141.885C296.211 140.352 295.234 139.482 293.193 139.004L291.513 138.623C290.322 138.34 289.834 137.93 289.834 137.266V137.246C289.834 136.396 290.673 135.82 291.836 135.82C293.027 135.82 293.779 136.377 293.984 137.119V137.139H296.005V137.129C295.82 135.4 294.267 134.189 291.845 134.189C289.443 134.189 287.724 135.518 287.724 137.363V137.373C287.724 138.926 288.652 139.834 290.654 140.293L292.343 140.684C293.574 140.967 294.072 141.416 294.072 142.08V142.1C294.072 142.969 293.164 143.564 291.855 143.564C290.595 143.564 289.824 143.027 289.56 142.227L289.55 142.217H287.431V142.227C287.636 144.004 289.257 145.205 291.816 145.205Z" fill="#131A29"/>
<path d="M643 138.611L647.923 143.5L659 132.5" stroke="#0095FF" stroke-width="2" stroke-linecap="round" stroke-linejoin="round"/>
<path d="M923 138.611L927.923 143.5L939 132.5" stroke="#0095FF" stroke-width="2" stroke-linecap="round" stroke-linejoin="round"/>
<rect x="0.5" y="97.5" width="1086" height="81" stroke="#C8E7FF"/>
<rect x="0.5" y="178.5" width="1086" height="81" fill="white" fill-opacity="0.3"/>
<path d="M17.7676 226H19.9551V220.58H23.041L25.9121 226H28.4414L25.2773 220.238C26.9961 219.662 28.0117 218.119 28.0117 216.225V216.205C28.0117 213.588 26.2148 211.908 23.3242 211.908H17.7676V226ZM19.9551 218.803V213.744H23.041C24.7305 213.744 25.7656 214.701 25.7656 216.264V216.283C25.7656 217.885 24.7891 218.803 23.1094 218.803H19.9551ZM34.7234 226.205C37.4383 226.205 38.9031 224.643 39.2547 223.246L39.2742 223.158L37.2332 223.168L37.1941 223.246C36.9402 223.793 36.1297 224.467 34.7723 224.467C33.0242 224.467 31.9109 223.285 31.8719 221.254H39.3914V220.512C39.3914 217.328 37.575 215.189 34.616 215.189C31.657 215.189 29.743 217.406 29.743 220.717V220.727C29.743 224.086 31.618 226.205 34.7234 226.205ZM34.6258 216.928C36.0613 216.928 37.1258 217.846 37.2918 219.74H31.9012C32.0867 217.914 33.1805 216.928 34.6258 216.928ZM44.2965 226H46.5523L50.3805 215.395H48.1539L45.5172 223.852H45.3512L42.7047 215.395H40.4586L44.2965 226ZM53.3129 213.5C54.0355 213.5 54.641 212.904 54.641 212.182C54.641 211.449 54.0355 210.854 53.3129 210.854C52.5805 210.854 51.9848 211.449 51.9848 212.182C51.9848 212.904 52.5805 213.5 53.3129 213.5ZM52.2484 226H54.3578V215.395H52.2484V226ZM61.5969 226.205C64.3117 226.205 65.7766 224.643 66.1281 223.246L66.1477 223.158L64.1066 223.168L64.0676 223.246C63.8137 223.793 63.0031 224.467 61.6457 224.467C59.8977 224.467 58.7844 223.285 58.7453 221.254H66.2648V220.512C66.2648 217.328 64.4484 215.189 61.4895 215.189C58.5305 215.189 56.6164 217.406 56.6164 220.717V220.727C56.6164 224.086 58.4914 226.205 61.5969 226.205ZM61.4992 216.928C62.9348 216.928 63.9992 217.846 64.1652 219.74H58.7746C58.9602 217.914 60.0539 216.928 61.4992 216.928ZM70.4473 226H72.6055L74.793 218.09H74.959L77.1562 226H79.334L82.2539 215.395H80.1543L78.2598 223.578H78.0938L75.9062 215.395H73.8945L71.707 223.578H71.5508L69.6465 215.395H67.5176L70.4473 226ZM88.1648 226.205C90.8797 226.205 92.3445 224.643 92.6961 223.246L92.7156 223.158L90.6746 223.168L90.6355 223.246C90.3816 223.793 89.5711 224.467 88.2137 224.467C86.4656 224.467 85.3523 223.285 85.3133 221.254H92.8328V220.512C92.8328 217.328 91.0164 215.189 88.0574 215.189C85.0984 215.189 83.1844 217.406 83.1844 220.717V220.727C83.1844 224.086 85.0594 226.205 88.1648 226.205ZM88.0672 216.928C89.5027 216.928 90.5672 217.846 90.7332 219.74H85.3426C85.5281 217.914 86.6219 216.928 88.0672 216.928ZM98.9195 226.176C100.404 226.176 101.566 225.492 102.181 224.33H102.347V226H104.457V211.234H102.347V217.074H102.181C101.615 215.932 100.375 215.209 98.9195 215.209C96.2242 215.209 94.525 217.328 94.525 220.688V220.707C94.525 224.037 96.2535 226.176 98.9195 226.176ZM99.525 224.369C97.7477 224.369 96.6832 222.982 96.6832 220.707V220.688C96.6832 218.412 97.7477 217.025 99.525 217.025C101.283 217.025 102.377 218.422 102.377 220.688V220.707C102.377 222.973 101.293 224.369 99.525 224.369ZM118.114 226.176C120.79 226.176 122.509 224.037 122.509 220.707V220.688C122.509 217.328 120.81 215.209 118.114 215.209C116.659 215.209 115.419 215.932 114.853 217.074H114.696V211.234H112.577V226H114.696V224.33H114.853C115.468 225.492 116.63 226.176 118.114 226.176ZM117.519 224.369C115.751 224.369 114.657 222.973 114.657 220.707V220.688C114.657 218.422 115.751 217.025 117.519 217.025C119.286 217.025 120.351 218.412 120.351 220.688V220.707C120.351 222.982 119.286 224.369 117.519 224.369ZM125.363 229.73C127.512 229.73 128.586 228.939 129.484 226.41L133.43 215.395H131.203L128.557 223.871H128.371L125.715 215.395H123.43L127.277 226.01L127.121 226.557C126.809 227.631 126.213 228.051 125.227 228.051C124.982 228.051 124.719 228.041 124.514 228.012V229.682C124.787 229.711 125.1 229.73 125.363 229.73ZM140.447 229.535H142.566V224.32H142.722C143.289 225.463 144.529 226.176 145.984 226.176C148.679 226.176 150.379 224.066 150.379 220.707V220.688C150.379 217.348 148.66 215.209 145.984 215.209C144.5 215.209 143.338 215.902 142.722 217.064H142.566V215.395H140.447V229.535ZM145.388 224.369C143.621 224.369 142.527 222.973 142.527 220.707V220.688C142.527 218.422 143.621 217.025 145.388 217.025C147.156 217.025 148.22 218.402 148.22 220.688V220.707C148.22 222.982 147.156 224.369 145.388 224.369ZM152.725 226H154.844V219.779C154.844 218.07 155.811 217.006 157.364 217.006C158.916 217.006 159.649 217.875 159.649 219.633V226H161.758V219.135C161.758 216.605 160.45 215.189 158.077 215.189C156.534 215.189 155.518 215.873 155 217.006H154.844V211.234H152.725V226ZM167.327 226.176C168.734 226.176 169.847 225.57 170.472 224.496H170.638V226H172.738V218.744C172.738 216.518 171.234 215.189 168.568 215.189C166.155 215.189 164.486 216.352 164.232 218.09L164.222 218.158H166.263L166.273 218.119C166.527 217.367 167.298 216.938 168.47 216.938C169.905 216.938 170.638 217.582 170.638 218.744V219.682L167.767 219.848C165.238 220.004 163.812 221.107 163.812 223.002V223.021C163.812 224.945 165.306 226.176 167.327 226.176ZM165.921 222.934V222.914C165.921 221.957 166.585 221.43 168.05 221.342L170.638 221.176V222.084C170.638 223.451 169.476 224.486 167.894 224.486C166.751 224.486 165.921 223.91 165.921 222.934ZM175.426 226H177.545V219.662C177.545 218.129 178.648 217.133 180.27 217.133C180.67 217.133 181.031 217.182 181.412 217.26V215.307C181.197 215.258 180.826 215.209 180.484 215.209C179.068 215.209 178.082 215.873 177.701 216.996H177.545V215.395H175.426V226ZM183.29 226H185.409V219.486C185.409 218.1 186.356 217.006 187.636 217.006C188.886 217.006 189.677 217.768 189.677 218.979V226H191.786V219.291C191.786 218.012 192.675 217.006 194.022 217.006C195.409 217.006 196.073 217.729 196.073 219.193V226H198.182V218.686C198.182 216.479 196.932 215.189 194.794 215.189C193.319 215.189 192.098 215.941 191.561 217.084H191.395C190.927 215.941 189.901 215.189 188.456 215.189C187.069 215.189 186.034 215.863 185.565 217.025H185.409V215.395H183.29V226ZM203.752 226.176C205.158 226.176 206.271 225.57 206.896 224.496H207.062V226H209.162V218.744C209.162 216.518 207.658 215.189 204.992 215.189C202.58 215.189 200.91 216.352 200.656 218.09L200.646 218.158H202.687L202.697 218.119C202.951 217.367 203.722 216.938 204.894 216.938C206.33 216.938 207.062 217.582 207.062 218.744V219.682L204.191 219.848C201.662 220.004 200.236 221.107 200.236 223.002V223.021C200.236 224.945 201.73 226.176 203.752 226.176ZM202.345 222.934V222.914C202.345 221.957 203.009 221.43 204.474 221.342L207.062 221.176V222.084C207.062 223.451 205.9 224.486 204.318 224.486C203.175 224.486 202.345 223.91 202.345 222.934ZM216.313 226.205C218.94 226.205 220.454 224.789 220.834 222.729L220.854 222.641H218.823L218.803 222.689C218.461 223.832 217.641 224.438 216.313 224.438C214.565 224.438 213.481 223.012 213.481 220.668V220.648C213.481 218.363 214.545 216.957 216.313 216.957C217.719 216.957 218.579 217.738 218.813 218.783L218.823 218.812L220.854 218.803V218.754C220.561 216.693 218.969 215.189 216.303 215.189C213.207 215.189 211.323 217.289 211.323 220.648V220.668C211.323 224.096 213.217 226.205 216.313 226.205ZM224.06 213.5C224.782 213.5 225.388 212.904 225.388 212.182C225.388 211.449 224.782 210.854 224.06 210.854C223.327 210.854 222.732 211.449 222.732 212.182C222.732 212.904 223.327 213.5 224.06 213.5ZM222.995 226H225.105V215.395H222.995V226ZM231.748 226.205C234.268 226.205 236.143 224.867 236.143 222.904V222.885C236.143 221.352 235.166 220.482 233.125 220.004L231.445 219.623C230.254 219.34 229.766 218.93 229.766 218.266V218.246C229.766 217.396 230.605 216.82 231.768 216.82C232.959 216.82 233.711 217.377 233.916 218.119V218.139H235.938V218.129C235.752 216.4 234.199 215.189 231.777 215.189C229.375 215.189 227.656 216.518 227.656 218.363V218.373C227.656 219.926 228.584 220.834 230.586 221.293L232.275 221.684C233.506 221.967 234.004 222.416 234.004 223.08V223.1C234.004 223.969 233.096 224.564 231.787 224.564C230.527 224.564 229.756 224.027 229.492 223.227L229.482 223.217H227.363V223.227C227.568 225.004 229.189 226.205 231.748 226.205ZM242.298 226.068C242.708 226.068 243.098 226.02 243.44 225.961V224.271C243.147 224.301 242.962 224.311 242.639 224.311C241.595 224.311 241.165 223.842 241.165 222.699V217.064H243.44V215.395H241.165V212.719H239.007V215.395H237.346V217.064H239.007V223.207C239.007 225.248 239.964 226.068 242.298 226.068ZM249.312 226.205C251.832 226.205 253.707 224.867 253.707 222.904V222.885C253.707 221.352 252.73 220.482 250.689 220.004L249.009 219.623C247.818 219.34 247.33 218.93 247.33 218.266V218.246C247.33 217.396 248.17 216.82 249.332 216.82C250.523 216.82 251.275 217.377 251.48 218.119V218.139H253.502V218.129C253.316 216.4 251.763 215.189 249.341 215.189C246.939 215.189 245.22 216.518 245.22 218.363V218.373C245.22 219.926 246.148 220.834 248.15 221.293L249.839 221.684C251.07 221.967 251.568 222.416 251.568 223.08V223.1C251.568 223.969 250.66 224.564 249.351 224.564C248.091 224.564 247.32 224.027 247.056 223.227L247.046 223.217H244.927V223.227C245.132 225.004 246.754 226.205 249.312 226.205Z" fill="#131A29"/>
<path d="M643 219.611L647.923 224.5L659 213.5" stroke="#0095FF" stroke-width="2" stroke-linecap="round" stroke-linejoin="round"/>
<path d="M923 219.611L927.923 224.5L939 213.5" stroke="#0095FF" stroke-width="2" stroke-linecap="round" stroke-linejoin="round"/>
<rect x="0.5" y="178.5" width="1086" height="81" stroke="#C8E7FF"/>
<path d="M16.6836 307H18.9785L20.2578 303.191H25.6484L26.918 307H29.2227L24.1348 292.908H21.7715L16.6836 307ZM22.8652 295.379H23.0312L25.0625 301.434H20.8438L22.8652 295.379ZM34.1375 307.205C35.6805 307.205 36.7547 306.541 37.2625 305.398H37.4285V307H39.5379V296.395H37.4285V302.615C37.4285 304.324 36.5203 305.389 34.8211 305.389C33.2684 305.389 32.6238 304.52 32.6238 302.762V296.395H30.5047V303.26C30.5047 305.77 31.7449 307.205 34.1375 307.205ZM46.2984 307.068C46.7086 307.068 47.0992 307.02 47.441 306.961V305.271C47.148 305.301 46.9625 305.311 46.6402 305.311C45.5953 305.311 45.1656 304.842 45.1656 303.699V298.064H47.441V296.395H45.1656V293.719H43.0074V296.395H41.3473V298.064H43.0074V304.207C43.0074 306.248 43.9645 307.068 46.2984 307.068ZM53.9867 307.205C57.0922 307.205 58.9965 305.125 58.9965 301.707V301.688C58.9965 298.27 57.0824 296.189 53.9867 296.189C50.8813 296.189 48.9672 298.279 48.9672 301.688V301.707C48.9672 305.125 50.8715 307.205 53.9867 307.205ZM53.9867 305.438C52.1605 305.438 51.1352 304.061 51.1352 301.707V301.688C51.1352 299.334 52.1605 297.957 53.9867 297.957C55.8031 297.957 56.8383 299.334 56.8383 301.688V301.707C56.8383 304.051 55.8031 305.438 53.9867 305.438ZM61.2258 307H63.3449V300.486C63.3449 299.1 64.2922 298.006 65.5715 298.006C66.8215 298.006 67.6125 298.768 67.6125 299.979V307H69.7219V300.291C69.7219 299.012 70.6105 298.006 71.9582 298.006C73.3449 298.006 74.009 298.729 74.009 300.193V307H76.1184V299.686C76.1184 297.479 74.8684 296.189 72.7297 296.189C71.2551 296.189 70.0344 296.941 69.4973 298.084H69.3312C68.8625 296.941 67.8371 296.189 66.3918 296.189C65.0051 296.189 63.9699 296.863 63.5012 298.025H63.3449V296.395H61.2258V307ZM81.6875 307.176C83.0938 307.176 84.207 306.57 84.832 305.496H84.998V307H87.0977V299.744C87.0977 297.518 85.5938 296.189 82.9277 296.189C80.5156 296.189 78.8457 297.352 78.5918 299.09L78.582 299.158H80.623L80.6328 299.119C80.8867 298.367 81.6582 297.938 82.8301 297.938C84.2656 297.938 84.998 298.582 84.998 299.744V300.682L82.127 300.848C79.5977 301.004 78.1719 302.107 78.1719 304.002V304.021C78.1719 305.945 79.666 307.176 81.6875 307.176ZM80.2812 303.934V303.914C80.2812 302.957 80.9453 302.43 82.4102 302.342L84.998 302.176V303.084C84.998 304.451 83.8359 305.486 82.2539 305.486C81.1113 305.486 80.2812 304.91 80.2812 303.934ZM93.7898 307.068C94.2 307.068 94.5906 307.02 94.9324 306.961V305.271C94.6395 305.301 94.4539 305.311 94.1316 305.311C93.0867 305.311 92.657 304.842 92.657 303.699V298.064H94.9324V296.395H92.657V293.719H90.4988V296.395H88.8387V298.064H90.4988V304.207C90.4988 306.248 91.4559 307.068 93.7898 307.068ZM98.2066 294.5C98.9293 294.5 99.5348 293.904 99.5348 293.182C99.5348 292.449 98.9293 291.854 98.2066 291.854C97.4742 291.854 96.8785 292.449 96.8785 293.182C96.8785 293.904 97.4742 294.5 98.2066 294.5ZM97.1422 307H99.2516V296.395H97.1422V307ZM106.5 307.205C109.127 307.205 110.641 305.789 111.022 303.729L111.041 303.641H109.01L108.991 303.689C108.649 304.832 107.829 305.438 106.5 305.438C104.752 305.438 103.668 304.012 103.668 301.668V301.648C103.668 299.363 104.733 297.957 106.5 297.957C107.907 297.957 108.766 298.738 109 299.783L109.01 299.812L111.041 299.803V299.754C110.748 297.693 109.157 296.189 106.491 296.189C103.395 296.189 101.51 298.289 101.51 301.648V301.668C101.51 305.096 103.405 307.205 106.5 307.205ZM118.312 307H120.432V300.662C120.432 299.129 121.535 298.133 123.156 298.133C123.557 298.133 123.918 298.182 124.299 298.26V296.307C124.084 296.258 123.713 296.209 123.371 296.209C121.955 296.209 120.969 296.873 120.588 297.996H120.432V296.395H118.312V307ZM130.2 307.205C132.915 307.205 134.38 305.643 134.731 304.246L134.751 304.158L132.71 304.168L132.671 304.246C132.417 304.793 131.606 305.467 130.249 305.467C128.501 305.467 127.387 304.285 127.348 302.254H134.868V301.512C134.868 298.328 133.052 296.189 130.093 296.189C127.134 296.189 125.22 298.406 125.22 301.717V301.727C125.22 305.086 127.095 307.205 130.2 307.205ZM130.102 297.928C131.538 297.928 132.602 298.846 132.768 300.74H127.378C127.563 298.914 128.657 297.928 130.102 297.928ZM137.839 307H139.949V298.064H142.283V296.395H139.929V295.379C139.929 294.305 140.388 293.738 141.56 293.738C141.892 293.738 142.175 293.758 142.371 293.787V292.234C142.009 292.176 141.599 292.137 141.121 292.137C138.914 292.137 137.839 293.172 137.839 295.281V296.395H136.091V298.064H137.839V307ZM145.469 294.5C146.192 294.5 146.797 293.904 146.797 293.182C146.797 292.449 146.192 291.854 145.469 291.854C144.737 291.854 144.141 292.449 144.141 293.182C144.141 293.904 144.737 294.5 145.469 294.5ZM144.405 307H146.514V296.395H144.405V307ZM149.398 307H151.517V292.234H149.398V307ZM154.469 307H156.588V292.234H154.469V307ZM163.3 307.205C165.819 307.205 167.694 305.867 167.694 303.904V303.885C167.694 302.352 166.718 301.482 164.677 301.004L162.997 300.623C161.805 300.34 161.317 299.93 161.317 299.266V299.246C161.317 298.396 162.157 297.82 163.319 297.82C164.511 297.82 165.262 298.377 165.468 299.119V299.139H167.489V299.129C167.304 297.4 165.751 296.189 163.329 296.189C160.927 296.189 159.208 297.518 159.208 299.363V299.373C159.208 300.926 160.136 301.834 162.137 302.293L163.827 302.684C165.057 302.967 165.555 303.416 165.555 304.08V304.1C165.555 304.969 164.647 305.564 163.339 305.564C162.079 305.564 161.307 305.027 161.044 304.227L161.034 304.217H158.915V304.227C159.12 306.004 160.741 307.205 163.3 307.205Z" fill="#131A29"/>
<path d="M643 300.611L647.923 305.5L659 294.5" stroke="#0095FF" stroke-width="2" stroke-linecap="round" stroke-linejoin="round"/>
<path d="M923 300.611L927.923 305.5L939 294.5" stroke="#0095FF" stroke-width="2" stroke-linecap="round" stroke-linejoin="round"/>
<rect x="0.5" y="259.5" width="1086" height="81" stroke="#C8E7FF"/>
<rect x="0.5" y="340.5" width="1086" height="81" fill="white" fill-opacity="0.3"/>
<path d="M16.6836 388H18.9785L20.2578 384.191H25.6484L26.918 388H29.2227L24.1348 373.908H21.7715L16.6836 388ZM22.8652 376.379H23.0312L25.0625 382.434H20.8438L22.8652 376.379ZM32.7215 388H34.9773L38.8055 377.395H36.5789L33.9422 385.852H33.7762L31.1297 377.395H28.8836L32.7215 388ZM43.1734 388.176C44.5797 388.176 45.693 387.57 46.318 386.496H46.484V388H48.5836V380.744C48.5836 378.518 47.0797 377.189 44.4137 377.189C42.0016 377.189 40.3316 378.352 40.0777 380.09L40.068 380.158H42.109L42.1187 380.119C42.3727 379.367 43.1441 378.938 44.316 378.938C45.7516 378.938 46.484 379.582 46.484 380.744V381.682L43.6129 381.848C41.0836 382.004 39.6578 383.107 39.6578 385.002V385.021C39.6578 386.945 41.152 388.176 43.1734 388.176ZM41.7672 384.934V384.914C41.7672 383.957 42.4312 383.43 43.8961 383.342L46.484 383.176V384.084C46.484 385.451 45.3219 386.486 43.7398 386.486C42.5973 386.486 41.7672 385.91 41.7672 384.934ZM52.3754 375.5C53.098 375.5 53.7035 374.904 53.7035 374.182C53.7035 373.449 53.098 372.854 52.3754 372.854C51.643 372.854 51.0473 373.449 51.0473 374.182C51.0473 374.904 51.643 375.5 52.3754 375.5ZM51.3109 388H53.4203V377.395H51.3109V388ZM56.3039 388H58.423V373.234H56.3039V388ZM64.1875 388.176C65.5938 388.176 66.707 387.57 67.332 386.496H67.498V388H69.5977V380.744C69.5977 378.518 68.0938 377.189 65.4277 377.189C63.0156 377.189 61.3457 378.352 61.0918 380.09L61.082 380.158H63.123L63.1328 380.119C63.3867 379.367 64.1582 378.938 65.3301 378.938C66.7656 378.938 67.498 379.582 67.498 380.744V381.682L64.627 381.848C62.0977 382.004 60.6719 383.107 60.6719 385.002V385.021C60.6719 386.945 62.166 388.176 64.1875 388.176ZM62.7812 384.934V384.914C62.7812 383.957 63.4453 383.43 64.9102 383.342L67.498 383.176V384.084C67.498 385.451 66.3359 386.486 64.7539 386.486C63.6113 386.486 62.7812 385.91 62.7812 384.934ZM77.9207 388.176C80.5965 388.176 82.3152 386.037 82.3152 382.707V382.688C82.3152 379.328 80.616 377.209 77.9207 377.209C76.4656 377.209 75.2254 377.932 74.659 379.074H74.5027V373.234H72.3836V388H74.5027V386.33H74.659C75.2742 387.492 76.4363 388.176 77.9207 388.176ZM77.325 386.369C75.5574 386.369 74.4637 384.973 74.4637 382.707V382.688C74.4637 380.422 75.5574 379.025 77.325 379.025C79.0926 379.025 80.157 380.412 80.157 382.688V382.707C80.157 384.982 79.0926 386.369 77.325 386.369ZM84.6422 388H86.7613V373.234H84.6422V388ZM94.0687 388.205C96.7836 388.205 98.2484 386.643 98.6 385.246L98.6195 385.158L96.5785 385.168L96.5395 385.246C96.2855 385.793 95.475 386.467 94.1176 386.467C92.3695 386.467 91.2562 385.285 91.2172 383.254H98.7367V382.512C98.7367 379.328 96.9203 377.189 93.9613 377.189C91.0023 377.189 89.0883 379.406 89.0883 382.717V382.727C89.0883 386.086 90.9633 388.205 94.0687 388.205ZM93.9711 378.928C95.4066 378.928 96.4711 379.846 96.6371 381.74H91.2465C91.432 379.914 92.5258 378.928 93.9711 378.928ZM110.129 388.068C110.539 388.068 110.93 388.02 111.271 387.961V386.271C110.979 386.301 110.793 386.311 110.471 386.311C109.426 386.311 108.996 385.842 108.996 384.699V379.064H111.271V377.395H108.996V374.719H106.838V377.395H105.178V379.064H106.838V385.207C106.838 387.248 107.795 388.068 110.129 388.068ZM117.817 388.205C120.923 388.205 122.827 386.125 122.827 382.707V382.688C122.827 379.27 120.913 377.189 117.817 377.189C114.712 377.189 112.798 379.279 112.798 382.688V382.707C112.798 386.125 114.702 388.205 117.817 388.205ZM117.817 386.438C115.991 386.438 114.966 385.061 114.966 382.707V382.688C114.966 380.334 115.991 378.957 117.817 378.957C119.634 378.957 120.669 380.334 120.669 382.688V382.707C120.669 385.051 119.634 386.438 117.817 386.438ZM131.26 391.73C133.409 391.73 134.483 390.939 135.381 388.41L139.327 377.395H137.1L134.454 385.871H134.268L131.612 377.395H129.327L133.174 388.01L133.018 388.557C132.705 389.631 132.11 390.051 131.123 390.051C130.879 390.051 130.616 390.041 130.411 390.012V391.682C130.684 391.711 130.996 391.73 131.26 391.73ZM145.257 388.205C148.363 388.205 150.267 386.125 150.267 382.707V382.688C150.267 379.27 148.353 377.189 145.257 377.189C142.152 377.189 140.238 379.279 140.238 382.688V382.707C140.238 386.125 142.142 388.205 145.257 388.205ZM145.257 386.438C143.431 386.438 142.405 385.061 142.405 382.707V382.688C142.405 380.334 143.431 378.957 145.257 378.957C147.073 378.957 148.109 380.334 148.109 382.688V382.707C148.109 385.051 147.073 386.438 145.257 386.438ZM156.031 388.205C157.574 388.205 158.648 387.541 159.156 386.398H159.322V388H161.432V377.395H159.322V383.615C159.322 385.324 158.414 386.389 156.715 386.389C155.162 386.389 154.518 385.52 154.518 383.762V377.395H152.398V384.26C152.398 386.77 153.639 388.205 156.031 388.205ZM169.357 388H178.849V386.135H172.336V385.939L175.324 382.961C177.882 380.422 178.625 379.191 178.625 377.59V377.561C178.625 375.236 176.691 373.566 174.064 373.566C171.232 373.566 169.24 375.383 169.23 377.961L169.25 377.98H171.3L171.31 377.951C171.31 376.408 172.365 375.373 173.947 375.373C175.49 375.373 176.437 376.389 176.437 377.766V377.795C176.437 378.938 175.9 379.66 174.035 381.604L169.357 386.516V388ZM187.631 388H189.741V385.197H191.684V383.342H189.741V373.908H186.625C184.682 376.828 182.612 380.158 180.756 383.342V385.197H187.631V388ZM182.856 383.381V383.244C184.301 380.773 186.02 378.029 187.534 375.754H187.661V383.381H182.856ZM198.825 373.234H196.833L192.527 391.535H194.519L198.825 373.234ZM200.732 388H203.027L209.16 375.803V373.908H199.561V375.754H206.943V375.91L200.732 388Z" fill="#131A29"/>
<path d="M645 381H657" stroke="#656565" stroke-width="2" stroke-linecap="round" stroke-linejoin="round"/>
<path d="M923 381.611L927.923 386.5L939 375.5" stroke="#0095FF" stroke-width="2" stroke-linecap="round" stroke-linejoin="round"/>
<rect x="0.5" y="340.5" width="1086" height="81" stroke="#C8E7FF"/>
<path d="M22.5332 469.342C25.8145 469.342 27.9141 467.662 27.9141 464.967V464.957C27.9141 462.867 26.7031 461.676 23.7441 461.041L22.2109 460.699C20.3848 460.309 19.6426 459.625 19.6426 458.58V458.57C19.6426 457.242 20.8633 456.471 22.5137 456.471C24.2227 456.461 25.3262 457.301 25.5117 458.453L25.5312 458.58H27.6504L27.6406 458.443C27.4844 456.256 25.5312 454.566 22.543 454.566C19.5547 454.566 17.4453 456.246 17.4355 458.678V458.688C17.4355 460.768 18.666 462.096 21.5273 462.701L23.0703 463.033C24.9355 463.434 25.6973 464.137 25.6973 465.221V465.23C25.6973 466.539 24.418 467.438 22.6211 467.438C20.7363 467.438 19.3789 466.617 19.2617 465.338L19.252 465.23H17.1035L17.1133 465.357C17.3086 467.73 19.3496 469.342 22.5332 469.342ZM30.3484 469H32.4676V462.779C32.4676 461.07 33.4344 460.006 34.9871 460.006C36.5398 460.006 37.2723 460.875 37.2723 462.633V469H39.3816V462.135C39.3816 459.605 38.073 458.189 35.7 458.189C34.157 458.189 33.1414 458.873 32.6238 460.006H32.4676V454.234H30.3484V469ZM46.5328 469.205C49.6383 469.205 51.5426 467.125 51.5426 463.707V463.688C51.5426 460.27 49.6285 458.189 46.5328 458.189C43.4273 458.189 41.5133 460.279 41.5133 463.688V463.707C41.5133 467.125 43.4176 469.205 46.5328 469.205ZM46.5328 467.438C44.7066 467.438 43.6812 466.061 43.6812 463.707V463.688C43.6812 461.334 44.7066 459.957 46.5328 459.957C48.3492 459.957 49.3844 461.334 49.3844 463.688V463.707C49.3844 466.051 48.3492 467.438 46.5328 467.438ZM55.4027 469H57.5609L59.7484 461.09H59.9145L62.1117 469H64.2895L67.2094 458.395H65.1098L63.2152 466.578H63.0492L60.8617 458.395H58.85L56.6625 466.578H56.5062L54.602 458.395H52.473L55.4027 469ZM72.6418 469.205C75.1613 469.205 77.0363 467.867 77.0363 465.904V465.885C77.0363 464.352 76.0598 463.482 74.0187 463.004L72.3391 462.623C71.1477 462.34 70.6594 461.93 70.6594 461.266V461.246C70.6594 460.396 71.4992 459.82 72.6613 459.82C73.8527 459.82 74.6047 460.377 74.8098 461.119V461.139H76.8312V461.129C76.6457 459.4 75.093 458.189 72.6711 458.189C70.2687 458.189 68.55 459.518 68.55 461.363V461.373C68.55 462.926 69.4777 463.834 71.4797 464.293L73.1691 464.684C74.3996 464.967 74.8977 465.416 74.8977 466.08V466.1C74.8977 466.969 73.9895 467.564 72.6809 467.564C71.4211 467.564 70.6496 467.027 70.3859 466.227L70.3762 466.217H68.257V466.227C68.4621 468.004 70.0832 469.205 72.6418 469.205ZM84.4344 472.535H86.5535V467.32H86.7098C87.2762 468.463 88.5164 469.176 89.9715 469.176C92.6668 469.176 94.366 467.066 94.366 463.707V463.688C94.366 460.348 92.6473 458.209 89.9715 458.209C88.4871 458.209 87.325 458.902 86.7098 460.064H86.5535V458.395H84.4344V472.535ZM89.3758 467.369C87.6082 467.369 86.5145 465.973 86.5145 463.707V463.688C86.5145 461.422 87.6082 460.025 89.3758 460.025C91.1434 460.025 92.2078 461.402 92.2078 463.688V463.707C92.2078 465.982 91.1434 467.369 89.3758 467.369ZM96.6148 469H98.734V462.662C98.734 461.129 99.8375 460.133 101.459 460.133C101.859 460.133 102.22 460.182 102.601 460.26V458.307C102.386 458.258 102.015 458.209 101.673 458.209C100.257 458.209 99.2711 458.873 98.8902 459.996H98.734V458.395H96.6148V469ZM105.426 456.5C106.149 456.5 106.754 455.904 106.754 455.182C106.754 454.449 106.149 453.854 105.426 453.854C104.694 453.854 104.098 454.449 104.098 455.182C104.098 455.904 104.694 456.5 105.426 456.5ZM104.362 469H106.471V458.395H104.362V469ZM113.72 469.205C116.347 469.205 117.861 467.789 118.241 465.729L118.261 465.641H116.23L116.21 465.689C115.868 466.832 115.048 467.438 113.72 467.438C111.972 467.438 110.888 466.012 110.888 463.668V463.648C110.888 461.363 111.952 459.957 113.72 459.957C115.126 459.957 115.986 460.738 116.22 461.783L116.23 461.812L118.261 461.803V461.754C117.968 459.693 116.376 458.189 113.71 458.189C110.614 458.189 108.73 460.289 108.73 463.648V463.668C108.73 467.096 110.624 469.205 113.72 469.205ZM124.816 469.205C127.531 469.205 128.996 467.643 129.348 466.246L129.367 466.158L127.326 466.168L127.287 466.246C127.033 466.793 126.223 467.467 124.865 467.467C123.117 467.467 122.004 466.285 121.965 464.254H129.484V463.512C129.484 460.328 127.668 458.189 124.709 458.189C121.75 458.189 119.836 460.406 119.836 463.717V463.727C119.836 467.086 121.711 469.205 124.816 469.205ZM124.719 459.928C126.154 459.928 127.219 460.846 127.385 462.74H121.994C122.18 460.914 123.273 459.928 124.719 459.928ZM135.561 469.205C138.081 469.205 139.956 467.867 139.956 465.904V465.885C139.956 464.352 138.979 463.482 136.938 463.004L135.259 462.623C134.067 462.34 133.579 461.93 133.579 461.266V461.246C133.579 460.396 134.419 459.82 135.581 459.82C136.772 459.82 137.524 460.377 137.729 461.119V461.139H139.751V461.129C139.565 459.4 138.012 458.189 135.591 458.189C133.188 458.189 131.47 459.518 131.47 461.363V461.373C131.47 462.926 132.397 463.834 134.399 464.293L136.089 464.684C137.319 464.967 137.817 465.416 137.817 466.08V466.1C137.817 466.969 136.909 467.564 135.6 467.564C134.341 467.564 133.569 467.027 133.305 466.227L133.296 466.217H131.177V466.227C131.382 468.004 133.003 469.205 135.561 469.205ZM150.889 469.205C152.432 469.205 153.506 468.541 154.014 467.398H154.18V469H156.289V458.395H154.18V464.615C154.18 466.324 153.272 467.389 151.573 467.389C150.02 467.389 149.375 466.52 149.375 464.762V458.395H147.256V465.26C147.256 467.77 148.496 469.205 150.889 469.205ZM159.046 472.535H161.165V467.32H161.321C161.888 468.463 163.128 469.176 164.583 469.176C167.279 469.176 168.978 467.066 168.978 463.707V463.688C168.978 460.348 167.259 458.209 164.583 458.209C163.099 458.209 161.937 458.902 161.321 460.064H161.165V458.395H159.046V472.535ZM163.988 467.369C162.22 467.369 161.126 465.973 161.126 463.707V463.688C161.126 461.422 162.22 460.025 163.988 460.025C165.755 460.025 166.82 461.402 166.82 463.688V463.707C166.82 465.982 165.755 467.369 163.988 467.369ZM171.979 469H174.088V460.064H176.422V458.395H174.068V457.379C174.068 456.305 174.527 455.738 175.699 455.738C176.031 455.738 176.314 455.758 176.51 455.787V454.234C176.148 454.176 175.738 454.137 175.26 454.137C173.053 454.137 171.979 455.172 171.979 457.281V458.395H170.23V460.064H171.979V469ZM178.505 469H180.624V462.662C180.624 461.129 181.727 460.133 183.348 460.133C183.749 460.133 184.11 460.182 184.491 460.26V458.307C184.276 458.258 183.905 458.209 183.563 458.209C182.147 458.209 181.161 458.873 180.78 459.996H180.624V458.395H178.505V469ZM190.431 469.205C193.537 469.205 195.441 467.125 195.441 463.707V463.688C195.441 460.27 193.527 458.189 190.431 458.189C187.326 458.189 185.412 460.279 185.412 463.688V463.707C185.412 467.125 187.316 469.205 190.431 469.205ZM190.431 467.438C188.605 467.438 187.58 466.061 187.58 463.707V463.688C187.58 461.334 188.605 459.957 190.431 459.957C192.248 459.957 193.283 461.334 193.283 463.688V463.707C193.283 466.051 192.248 467.438 190.431 467.438ZM197.67 469H199.789V462.779C199.789 461.07 200.756 460.006 202.309 460.006C203.862 460.006 204.594 460.875 204.594 462.633V469H206.704V462.135C206.704 459.605 205.395 458.189 203.022 458.189C201.479 458.189 200.463 458.873 199.946 460.006H199.789V458.395H197.67V469ZM213.366 469.068C213.777 469.068 214.167 469.02 214.509 468.961V467.271C214.216 467.301 214.03 467.311 213.708 467.311C212.663 467.311 212.234 466.842 212.234 465.699V460.064H214.509V458.395H212.234V455.719H210.075V458.395H208.415V460.064H210.075V466.207C210.075 468.248 211.032 469.068 213.366 469.068Z" fill="#131A29"/>
<path d="M645 462H657" stroke="#656565" stroke-width="2" stroke-linecap="round" stroke-linejoin="round"/>
<path d="M923 462.611L927.923 467.5L939 456.5" stroke="#0095FF" stroke-width="2" stroke-linecap="round" stroke-linejoin="round"/>
<rect x="0.5" y="421.5" width="1086" height="81" stroke="#C8E7FF"/>
<rect x="0.5" y="502.5" width="1086" height="81" fill="white" fill-opacity="0.3"/>
<path d="M17.7676 550H22.8555C27.0547 550 29.4863 547.402 29.4863 542.93V542.91C29.4863 538.486 27.0352 535.908 22.8555 535.908H17.7676V550ZM19.9551 548.115V537.793H22.6113C25.5312 537.793 27.2598 539.697 27.2598 542.939V542.959C27.2598 546.23 25.5605 548.115 22.6113 548.115H19.9551ZM36.3641 550.205C39.0789 550.205 40.5437 548.643 40.8953 547.246L40.9148 547.158L38.8738 547.168L38.8348 547.246C38.5809 547.793 37.7703 548.467 36.4129 548.467C34.6648 548.467 33.5516 547.285 33.5125 545.254H41.032V544.512C41.032 541.328 39.2156 539.189 36.2566 539.189C33.2977 539.189 31.3836 541.406 31.3836 544.717V544.727C31.3836 548.086 33.2586 550.205 36.3641 550.205ZM36.2664 540.928C37.702 540.928 38.7664 541.846 38.9324 543.74H33.5418C33.7273 541.914 34.8211 540.928 36.2664 540.928ZM43.3492 550H45.4684V535.234H43.3492V550ZM49.4262 537.5C50.1488 537.5 50.7543 536.904 50.7543 536.182C50.7543 535.449 50.1488 534.854 49.4262 534.854C48.6938 534.854 48.098 535.449 48.098 536.182C48.098 536.904 48.6938 537.5 49.4262 537.5ZM48.3617 550H50.4711V539.395H48.3617V550ZM56.177 550H58.4328L62.2609 539.395H60.0344L57.3977 547.852H57.2316L54.5852 539.395H52.3391L56.177 550ZM68.1328 550.205C70.8477 550.205 72.3125 548.643 72.6641 547.246L72.6836 547.158L70.6426 547.168L70.6035 547.246C70.3496 547.793 69.5391 548.467 68.1816 548.467C66.4336 548.467 65.3203 547.285 65.2812 545.254H72.8008V544.512C72.8008 541.328 70.9844 539.189 68.0254 539.189C65.0664 539.189 63.1523 541.406 63.1523 544.717V544.727C63.1523 548.086 65.0273 550.205 68.1328 550.205ZM68.0352 540.928C69.4707 540.928 70.5352 541.846 70.7012 543.74H65.3105C65.4961 541.914 66.5898 540.928 68.0352 540.928ZM75.0203 550H77.1395V543.662C77.1395 542.129 78.243 541.133 79.8641 541.133C80.2645 541.133 80.6258 541.182 81.0066 541.26V539.307C80.7918 539.258 80.4207 539.209 80.0789 539.209C78.6629 539.209 77.6766 539.873 77.2957 540.996H77.1395V539.395H75.0203V550ZM86.3707 550.205C88.8902 550.205 90.7652 548.867 90.7652 546.904V546.885C90.7652 545.352 89.7887 544.482 87.7477 544.004L86.068 543.623C84.8766 543.34 84.3883 542.93 84.3883 542.266V542.246C84.3883 541.396 85.2281 540.82 86.3902 540.82C87.5816 540.82 88.3336 541.377 88.5387 542.119V542.139H90.5602V542.129C90.3746 540.4 88.8219 539.189 86.4 539.189C83.9977 539.189 82.2789 540.518 82.2789 542.363V542.373C82.2789 543.926 83.2066 544.834 85.2086 545.293L86.898 545.684C88.1285 545.967 88.6266 546.416 88.6266 547.08V547.1C88.6266 547.969 87.7184 548.564 86.4098 548.564C85.15 548.564 84.3785 548.027 84.1148 547.227L84.1051 547.217H81.9859V547.227C82.191 549.004 83.8121 550.205 86.3707 550.205ZM102.167 550.068C102.577 550.068 102.968 550.02 103.31 549.961V548.271C103.017 548.301 102.831 548.311 102.509 548.311C101.464 548.311 101.034 547.842 101.034 546.699V541.064H103.31V539.395H101.034V536.719H98.8762V539.395H97.216V541.064H98.8762V547.207C98.8762 549.248 99.8332 550.068 102.167 550.068ZM109.855 550.205C112.961 550.205 114.865 548.125 114.865 544.707V544.688C114.865 541.27 112.951 539.189 109.855 539.189C106.75 539.189 104.836 541.279 104.836 544.688V544.707C104.836 548.125 106.74 550.205 109.855 550.205ZM109.855 548.438C108.029 548.438 107.004 547.061 107.004 544.707V544.688C107.004 542.334 108.029 540.957 109.855 540.957C111.672 540.957 112.707 542.334 112.707 544.688V544.707C112.707 547.051 111.672 548.438 109.855 548.438ZM123.298 553.73C125.447 553.73 126.521 552.939 127.42 550.41L131.365 539.395H129.138L126.492 547.871H126.306L123.65 539.395H121.365L125.213 550.01L125.056 550.557C124.744 551.631 124.148 552.051 123.162 552.051C122.918 552.051 122.654 552.041 122.449 552.012V553.682C122.722 553.711 123.035 553.73 123.298 553.73ZM137.295 550.205C140.401 550.205 142.305 548.125 142.305 544.707V544.688C142.305 541.27 140.391 539.189 137.295 539.189C134.19 539.189 132.276 541.279 132.276 544.688V544.707C132.276 548.125 134.18 550.205 137.295 550.205ZM137.295 548.438C135.469 548.438 134.444 547.061 134.444 544.707V544.688C134.444 542.334 135.469 540.957 137.295 540.957C139.112 540.957 140.147 542.334 140.147 544.688V544.707C140.147 547.051 139.112 548.438 137.295 548.438ZM148.07 550.205C149.613 550.205 150.687 549.541 151.195 548.398H151.361V550H153.47V539.395H151.361V545.615C151.361 547.324 150.452 548.389 148.753 548.389C147.2 548.389 146.556 547.52 146.556 545.762V539.395H144.437V546.26C144.437 548.77 145.677 550.205 148.07 550.205ZM156.227 550H158.346V543.662C158.346 542.129 159.449 541.133 161.07 541.133C161.471 541.133 161.832 541.182 162.213 541.26V539.307C161.998 539.258 161.627 539.209 161.285 539.209C159.869 539.209 158.883 539.873 158.502 540.996H158.346V539.395H156.227V550ZM172.97 550.176C174.455 550.176 175.617 549.492 176.232 548.33H176.398V550H178.507V535.234H176.398V541.074H176.232C175.666 539.932 174.425 539.209 172.97 539.209C170.275 539.209 168.576 541.328 168.576 544.688V544.707C168.576 548.037 170.304 550.176 172.97 550.176ZM173.576 548.369C171.798 548.369 170.734 546.982 170.734 544.707V544.688C170.734 542.412 171.798 541.025 173.576 541.025C175.334 541.025 176.427 542.422 176.427 544.688V544.707C176.427 546.973 175.343 548.369 173.576 548.369ZM185.854 550.205C188.959 550.205 190.864 548.125 190.864 544.707V544.688C190.864 541.27 188.95 539.189 185.854 539.189C182.748 539.189 180.834 541.279 180.834 544.688V544.707C180.834 548.125 182.739 550.205 185.854 550.205ZM185.854 548.438C184.028 548.438 183.002 547.061 183.002 544.707V544.688C183.002 542.334 184.028 540.957 185.854 540.957C187.67 540.957 188.705 542.334 188.705 544.688V544.707C188.705 547.051 187.67 548.438 185.854 548.438ZM197.585 550.205C200.691 550.205 202.595 548.125 202.595 544.707V544.688C202.595 541.27 200.681 539.189 197.585 539.189C194.48 539.189 192.566 541.279 192.566 544.688V544.707C192.566 548.125 194.47 550.205 197.585 550.205ZM197.585 548.438C195.759 548.438 194.734 547.061 194.734 544.707V544.688C194.734 542.334 195.759 540.957 197.585 540.957C199.402 540.957 200.437 542.334 200.437 544.688V544.707C200.437 547.051 199.402 548.438 197.585 548.438ZM204.824 550H206.943V543.662C206.943 542.129 208.047 541.133 209.668 541.133C210.068 541.133 210.43 541.182 210.811 541.26V539.307C210.596 539.258 210.225 539.209 209.883 539.209C208.467 539.209 207.48 539.873 207.1 540.996H206.943V539.395H204.824V550Z" fill="#131A29"/>
<path d="M645 543H657" stroke="#656565" stroke-width="2" stroke-linecap="round" stroke-linejoin="round"/>
<path d="M923 543.611L927.923 548.5L939 537.5" stroke="#0095FF" stroke-width="2" stroke-linecap="round" stroke-linejoin="round"/>
<rect x="0.5" y="502.5" width="1086" height="81" stroke="#C8E7FF"/>
<path d="M17.7676 631H19.7598V620.658H19.916L24.0469 631H25.668L29.8086 620.658H29.9551V631H31.9473V616.908H29.4277L24.9355 628.148H24.7793L20.2871 616.908H17.7676V631ZM39.3914 631.205C42.1063 631.205 43.5711 629.643 43.9227 628.246L43.9422 628.158L41.9012 628.168L41.8621 628.246C41.6082 628.793 40.7977 629.467 39.4402 629.467C37.6922 629.467 36.5789 628.285 36.5398 626.254H44.0594V625.512C44.0594 622.328 42.243 620.189 39.284 620.189C36.325 620.189 34.4109 622.406 34.4109 625.717V625.727C34.4109 629.086 36.2859 631.205 39.3914 631.205ZM39.2938 621.928C40.7293 621.928 41.7938 622.846 41.9598 624.74H36.5691C36.7547 622.914 37.8484 621.928 39.2938 621.928ZM50.1461 631.176C51.6305 631.176 52.7926 630.492 53.4078 629.33H53.5738V631H55.6832V616.234H53.5738V622.074H53.4078C52.8414 620.932 51.6012 620.209 50.1461 620.209C47.4508 620.209 45.7516 622.328 45.7516 625.688V625.707C45.7516 629.037 47.4801 631.176 50.1461 631.176ZM50.7516 629.369C48.9742 629.369 47.9098 627.982 47.9098 625.707V625.688C47.9098 623.412 48.9742 622.025 50.7516 622.025C52.5094 622.025 53.6031 623.422 53.6031 625.688V625.707C53.6031 627.973 52.5191 629.369 50.7516 629.369ZM62.3949 631.205C64.9145 631.205 66.7895 629.867 66.7895 627.904V627.885C66.7895 626.352 65.8129 625.482 63.7719 625.004L62.0922 624.623C60.9008 624.34 60.4125 623.93 60.4125 623.266V623.246C60.4125 622.396 61.2523 621.82 62.4145 621.82C63.6059 621.82 64.3578 622.377 64.5629 623.119V623.139H66.5844V623.129C66.3988 621.4 64.8461 620.189 62.4242 620.189C60.0219 620.189 58.3031 621.518 58.3031 623.363V623.373C58.3031 624.926 59.2309 625.834 61.2328 626.293L62.9223 626.684C64.1527 626.967 64.6508 627.416 64.6508 628.08V628.1C64.6508 628.969 63.7426 629.564 62.434 629.564C61.1742 629.564 60.4027 629.027 60.1391 628.227L60.1293 628.217H58.0102V628.227C58.2152 630.004 59.8363 631.205 62.3949 631.205ZM77.0977 631.176C78.5039 631.176 79.6172 630.57 80.2422 629.496H80.4082V631H82.5078V623.744C82.5078 621.518 81.0039 620.189 78.3379 620.189C75.9258 620.189 74.2559 621.352 74.002 623.09L73.9922 623.158H76.0332L76.043 623.119C76.2969 622.367 77.0684 621.938 78.2402 621.938C79.6758 621.938 80.4082 622.582 80.4082 623.744V624.682L77.5371 624.848C75.0078 625.004 73.582 626.107 73.582 628.002V628.021C73.582 629.945 75.0762 631.176 77.0977 631.176ZM75.6914 627.934V627.914C75.6914 626.957 76.3555 626.43 77.8203 626.342L80.4082 626.176V627.084C80.4082 628.451 79.2461 629.486 77.6641 629.486C76.5215 629.486 75.6914 628.91 75.6914 627.934ZM85.1961 631H87.3152V624.662C87.3152 623.129 88.4187 622.133 90.0398 622.133C90.4402 622.133 90.8016 622.182 91.1824 622.26V620.307C90.9676 620.258 90.5965 620.209 90.2547 620.209C88.8387 620.209 87.8523 620.873 87.4715 621.996H87.3152V620.395H85.1961V631ZM97.0836 631.205C99.7984 631.205 101.263 629.643 101.615 628.246L101.634 628.158L99.5934 628.168L99.5543 628.246C99.3004 628.793 98.4898 629.467 97.1324 629.467C95.3844 629.467 94.2711 628.285 94.232 626.254H101.752V625.512C101.752 622.328 99.9352 620.189 96.9762 620.189C94.0172 620.189 92.1031 622.406 92.1031 625.717V625.727C92.1031 629.086 93.9781 631.205 97.0836 631.205ZM96.9859 621.928C98.4215 621.928 99.4859 622.846 99.652 624.74H94.2613C94.4469 622.914 95.5406 621.928 96.9859 621.928ZM112.05 631.176C113.456 631.176 114.57 630.57 115.195 629.496H115.361V631H117.46V623.744C117.46 621.518 115.956 620.189 113.29 620.189C110.878 620.189 109.208 621.352 108.954 623.09L108.945 623.158H110.986L110.995 623.119C111.249 622.367 112.021 621.938 113.193 621.938C114.628 621.938 115.361 622.582 115.361 623.744V624.682L112.489 624.848C109.96 625.004 108.534 626.107 108.534 628.002V628.021C108.534 629.945 110.029 631.176 112.05 631.176ZM110.644 627.934V627.914C110.644 626.957 111.308 626.43 112.773 626.342L115.361 626.176V627.084C115.361 628.451 114.198 629.486 112.616 629.486C111.474 629.486 110.644 628.91 110.644 627.934ZM124.006 631.205C126.525 631.205 128.4 629.867 128.4 627.904V627.885C128.4 626.352 127.424 625.482 125.383 625.004L123.703 624.623C122.512 624.34 122.023 623.93 122.023 623.266V623.246C122.023 622.396 122.863 621.82 124.025 621.82C125.217 621.82 125.969 622.377 126.174 623.119V623.139H128.195V623.129C128.01 621.4 126.457 620.189 124.035 620.189C121.633 620.189 119.914 621.518 119.914 623.363V623.373C119.914 624.926 120.842 625.834 122.844 626.293L124.533 626.684C125.764 626.967 126.262 627.416 126.262 628.08V628.1C126.262 628.969 125.354 629.564 124.045 629.564C122.785 629.564 122.014 629.027 121.75 628.227L121.74 628.217H119.621V628.227C119.826 630.004 121.447 631.205 124.006 631.205ZM135.896 631H138.015V616.234H135.896V631ZM145.362 631.205C148.467 631.205 150.371 629.125 150.371 625.707V625.688C150.371 622.27 148.457 620.189 145.362 620.189C142.256 620.189 140.342 622.279 140.342 625.688V625.707C140.342 629.125 142.246 631.205 145.362 631.205ZM145.362 629.438C143.536 629.438 142.51 628.061 142.51 625.707V625.688C142.51 623.334 143.536 621.957 145.362 621.957C147.178 621.957 148.213 623.334 148.213 625.688V625.707C148.213 628.051 147.178 629.438 145.362 629.438ZM154.232 631H156.39L158.577 623.09H158.743L160.941 631H163.118L166.038 620.395H163.939L162.044 628.578H161.878L159.691 620.395H157.679L155.491 628.578H155.335L153.431 620.395H151.302L154.232 631ZM175.985 631.176C177.391 631.176 178.505 630.57 179.13 629.496H179.296V631H181.395V623.744C181.395 621.518 179.891 620.189 177.225 620.189C174.813 620.189 173.143 621.352 172.889 623.09L172.88 623.158H174.921L174.93 623.119C175.184 622.367 175.956 621.938 177.128 621.938C178.563 621.938 179.296 622.582 179.296 623.744V624.682L176.425 624.848C173.895 625.004 172.47 626.107 172.47 628.002V628.021C172.47 629.945 173.964 631.176 175.985 631.176ZM174.579 627.934V627.914C174.579 626.957 175.243 626.43 176.708 626.342L179.296 626.176V627.084C179.296 628.451 178.134 629.486 176.552 629.486C175.409 629.486 174.579 628.91 174.579 627.934ZM187.941 631.205C190.461 631.205 192.336 629.867 192.336 627.904V627.885C192.336 626.352 191.359 625.482 189.318 625.004L187.638 624.623C186.447 624.34 185.959 623.93 185.959 623.266V623.246C185.959 622.396 186.798 621.82 187.961 621.82C189.152 621.82 189.904 622.377 190.109 623.119V623.139H192.13V623.129C191.945 621.4 190.392 620.189 187.97 620.189C185.568 620.189 183.849 621.518 183.849 623.363V623.373C183.849 624.926 184.777 625.834 186.779 626.293L188.468 626.684C189.699 626.967 190.197 627.416 190.197 628.08V628.1C190.197 628.969 189.289 629.564 187.98 629.564C186.72 629.564 185.949 629.027 185.685 628.227L185.675 628.217H183.556V628.227C183.761 630.004 185.382 631.205 187.941 631.205ZM204.118 632.406H205.271V630.775C207.741 630.59 209.685 629.232 209.685 626.85V626.83C209.685 624.76 208.279 623.705 205.71 623.109L205.271 623.002V618.91C206.511 619.086 207.37 619.828 207.507 621.039V621.059L209.529 621.049V621.039C209.441 618.842 207.693 617.338 205.271 617.133V615.492H204.118V617.133C201.667 617.328 199.929 618.773 199.929 620.951V620.971C199.929 622.943 201.267 624.057 203.738 624.633L204.118 624.73V628.998C202.546 628.832 201.814 627.982 201.648 626.85V626.83L199.616 626.84V626.85C199.695 629.174 201.648 630.58 204.118 630.775V632.406ZM201.989 620.814V620.795C201.989 619.906 202.722 619.096 204.118 618.91V622.729C202.575 622.338 201.989 621.684 201.989 620.814ZM207.614 627.025V627.045C207.614 628.08 206.921 628.871 205.271 629.008V624.994C207.068 625.424 207.614 626.02 207.614 627.025ZM215.791 631H217.979V616.908H215.791L212.08 619.545V621.693L215.625 619.164H215.791V631ZM226.448 616.234H224.456L220.149 634.535H222.141L226.448 616.234ZM227.681 631H229.8V624.486C229.8 623.1 230.748 622.006 232.027 622.006C233.277 622.006 234.068 622.768 234.068 623.979V631H236.177V624.291C236.177 623.012 237.066 622.006 238.414 622.006C239.8 622.006 240.464 622.729 240.464 624.193V631H242.574V623.686C242.574 621.479 241.324 620.189 239.185 620.189C237.711 620.189 236.49 620.941 235.953 622.084H235.787C235.318 620.941 234.293 620.189 232.847 620.189C231.461 620.189 230.425 620.863 229.957 622.025H229.8V620.395H227.681V631ZM249.725 631.205C252.83 631.205 254.735 629.125 254.735 625.707V625.688C254.735 622.27 252.821 620.189 249.725 620.189C246.62 620.189 244.705 622.279 244.705 625.688V625.707C244.705 629.125 246.61 631.205 249.725 631.205ZM249.725 629.438C247.899 629.438 246.873 628.061 246.873 625.707V625.688C246.873 623.334 247.899 621.957 249.725 621.957C251.541 621.957 252.577 623.334 252.577 625.688V625.707C252.577 628.051 251.541 629.438 249.725 629.438ZM256.964 631H259.083V624.779C259.083 623.07 260.05 622.006 261.603 622.006C263.155 622.006 263.888 622.875 263.888 624.633V631H265.997V624.135C265.997 621.605 264.689 620.189 262.316 620.189C260.773 620.189 259.757 620.873 259.239 622.006H259.083V620.395H256.964V631ZM272.66 631.068C273.07 631.068 273.461 631.02 273.803 630.961V629.271C273.51 629.301 273.324 629.311 273.002 629.311C271.957 629.311 271.527 628.842 271.527 627.699V622.064H273.803V620.395H271.527V617.719H269.369V620.395H267.709V622.064H269.369V628.207C269.369 630.248 270.326 631.068 272.66 631.068ZM276.071 631H278.19V624.779C278.19 623.07 279.157 622.006 280.71 622.006C282.263 622.006 282.995 622.875 282.995 624.633V631H285.104V624.135C285.104 621.605 283.796 620.189 281.423 620.189C279.88 620.189 278.864 620.873 278.346 622.006H278.19V616.234H276.071V631Z" fill="#131A29"/>
<path d="M645 624H657" stroke="#656565" stroke-width="2" stroke-linecap="round" stroke-linejoin="round"/>
<path d="M923 624.611L927.923 629.5L939 618.5" stroke="#0095FF" stroke-width="2" stroke-linecap="round" stroke-linejoin="round"/>
<rect x="0.5" y="583.5" width="1086" height="81" stroke="#C8E7FF"/>
<rect x="0.5" y="664.5" width="1086" height="81" fill="white" fill-opacity="0.3"/>
<path d="M23.7734 712.342C27.8457 712.342 30.3457 709.471 30.3457 704.959V704.939C30.3457 700.418 27.8262 697.566 23.7734 697.566C19.7305 697.566 17.1914 700.408 17.1914 704.939V704.959C17.1914 709.48 19.6719 712.342 23.7734 712.342ZM23.7734 710.408C21.0586 710.408 19.4277 708.26 19.4277 704.959V704.939C19.4277 701.609 21.1074 699.5 23.7734 699.5C26.4395 699.5 28.1094 701.609 28.1094 704.939V704.959C28.1094 708.26 26.4492 710.408 23.7734 710.408ZM33.5223 712H35.6316V703.064H37.9656V701.395H35.6121V700.379C35.6121 699.305 36.0711 698.738 37.243 698.738C37.575 698.738 37.8582 698.758 38.0535 698.787V697.234C37.6922 697.176 37.282 697.137 36.8035 697.137C34.5965 697.137 33.5223 698.172 33.5223 700.281V701.395H31.7742V703.064H33.5223V712ZM40.8395 712H42.9488V703.064H45.2828V701.395H42.9293V700.379C42.9293 699.305 43.3883 698.738 44.5602 698.738C44.8922 698.738 45.1754 698.758 45.3707 698.787V697.234C45.0094 697.176 44.5992 697.137 44.1207 697.137C41.9137 697.137 40.8395 698.172 40.8395 700.281V701.395H39.0914V703.064H40.8395V712ZM51.4086 712.205C54.1234 712.205 55.5883 710.643 55.9398 709.246L55.9594 709.158L53.9184 709.168L53.8793 709.246C53.6254 709.793 52.8148 710.467 51.4574 710.467C49.7094 710.467 48.5961 709.285 48.557 707.254H56.0766V706.512C56.0766 703.328 54.2602 701.189 51.3012 701.189C48.3422 701.189 46.4281 703.406 46.4281 706.717V706.727C46.4281 710.086 48.3031 712.205 51.4086 712.205ZM51.3109 702.928C52.7465 702.928 53.8109 703.846 53.977 705.74H48.5863C48.7719 703.914 49.8656 702.928 51.3109 702.928ZM58.2961 712H60.4152V705.662C60.4152 704.129 61.5187 703.133 63.1398 703.133C63.5402 703.133 63.9016 703.182 64.2824 703.26V701.307C64.0676 701.258 63.6965 701.209 63.3547 701.209C61.9387 701.209 60.9523 701.873 60.5715 702.996H60.4152V701.395H58.2961V712ZM69.6465 712.205C72.166 712.205 74.041 710.867 74.041 708.904V708.885C74.041 707.352 73.0645 706.482 71.0234 706.004L69.3438 705.623C68.1523 705.34 67.6641 704.93 67.6641 704.266V704.246C67.6641 703.396 68.5039 702.82 69.666 702.82C70.8574 702.82 71.6094 703.377 71.8145 704.119V704.139H73.8359V704.129C73.6504 702.4 72.0977 701.189 69.6758 701.189C67.2734 701.189 65.5547 702.518 65.5547 704.363V704.373C65.5547 705.926 66.4824 706.834 68.4844 707.293L70.1738 707.684C71.4043 707.967 71.9023 708.416 71.9023 709.08V709.1C71.9023 709.969 70.9941 710.564 69.6855 710.564C68.4258 710.564 67.6543 710.027 67.3906 709.227L67.3809 709.217H65.2617V709.227C65.4668 711.004 67.0879 712.205 69.6465 712.205ZM86.6441 712.342C89.6031 712.342 91.7418 710.271 91.7418 707.439V707.42C91.7418 704.725 89.818 702.732 87.1324 702.732C85.2086 702.732 83.9391 703.738 83.4215 704.871H83.2359C83.2359 704.764 83.2359 704.656 83.2457 704.549C83.3531 701.736 84.3395 699.422 86.7125 699.422C88.0406 699.422 88.9586 700.105 89.3492 701.18L89.3883 701.277H91.5563L91.5367 701.16C91.068 699.031 89.2125 697.566 86.7223 697.566C83.2359 697.566 81.1559 700.379 81.1559 705.145V705.164C81.1559 710.35 83.8121 712.342 86.6441 712.342ZM83.6656 707.439V707.43C83.6656 705.73 84.9547 704.5 86.6441 704.5C88.3531 704.5 89.5836 705.75 89.5836 707.479V707.498C89.5836 709.188 88.275 710.506 86.6246 710.506C84.9645 710.506 83.6656 709.158 83.6656 707.439ZM94.1957 707.293H100.729V705.35H94.1957V707.293ZM103.456 712H105.575V705.486C105.575 704.1 106.523 703.006 107.802 703.006C109.052 703.006 109.843 703.768 109.843 704.979V712H111.952V705.291C111.952 704.012 112.841 703.006 114.189 703.006C115.575 703.006 116.239 703.729 116.239 705.193V712H118.349V704.686C118.349 702.479 117.099 701.189 114.96 701.189C113.486 701.189 112.265 701.941 111.728 703.084H111.562C111.093 701.941 110.068 701.189 108.622 701.189C107.236 701.189 106.2 701.863 105.732 703.025H105.575V701.395H103.456V712ZM125.5 712.205C128.605 712.205 130.51 710.125 130.51 706.707V706.688C130.51 703.27 128.596 701.189 125.5 701.189C122.395 701.189 120.48 703.279 120.48 706.688V706.707C120.48 710.125 122.385 712.205 125.5 712.205ZM125.5 710.438C123.674 710.438 122.648 709.061 122.648 706.707V706.688C122.648 704.334 123.674 702.957 125.5 702.957C127.316 702.957 128.352 704.334 128.352 706.688V706.707C128.352 709.051 127.316 710.438 125.5 710.438ZM132.739 712H134.858V705.779C134.858 704.07 135.825 703.006 137.378 703.006C138.93 703.006 139.663 703.875 139.663 705.633V712H141.772V705.135C141.772 702.605 140.464 701.189 138.091 701.189C136.548 701.189 135.532 701.873 135.014 703.006H134.858V701.395H132.739V712ZM148.435 712.068C148.845 712.068 149.236 712.02 149.578 711.961V710.271C149.285 710.301 149.099 710.311 148.777 710.311C147.732 710.311 147.302 709.842 147.302 708.699V703.064H149.578V701.395H147.302V698.719H145.144V701.395H143.484V703.064H145.144V709.207C145.144 711.248 146.101 712.068 148.435 712.068ZM151.846 712H153.965V705.779C153.965 704.07 154.932 703.006 156.485 703.006C158.038 703.006 158.77 703.875 158.77 705.633V712H160.879V705.135C160.879 702.605 159.571 701.189 157.198 701.189C155.655 701.189 154.639 701.873 154.121 703.006H153.965V697.234H151.846V712ZM172.564 712.205C175.084 712.205 176.959 710.867 176.959 708.904V708.885C176.959 707.352 175.982 706.482 173.941 706.004L172.262 705.623C171.07 705.34 170.582 704.93 170.582 704.266V704.246C170.582 703.396 171.422 702.82 172.584 702.82C173.775 702.82 174.527 703.377 174.732 704.119V704.139H176.754V704.129C176.568 702.4 175.016 701.189 172.594 701.189C170.191 701.189 168.473 702.518 168.473 704.363V704.373C168.473 705.926 169.4 706.834 171.402 707.293L173.092 707.684C174.322 707.967 174.82 708.416 174.82 709.08V709.1C174.82 709.969 173.912 710.564 172.604 710.564C171.344 710.564 170.572 710.027 170.309 709.227L170.299 709.217H168.18V709.227C168.385 711.004 170.006 712.205 172.564 712.205ZM182.723 712.205C184.266 712.205 185.341 711.541 185.848 710.398H186.014V712H188.124V701.395H186.014V707.615C186.014 709.324 185.106 710.389 183.407 710.389C181.854 710.389 181.21 709.52 181.21 707.762V701.395H179.091V708.26C179.091 710.77 180.331 712.205 182.723 712.205ZM190.88 715.535H193V710.32H193.156C193.722 711.463 194.962 712.176 196.418 712.176C199.113 712.176 200.812 710.066 200.812 706.707V706.688C200.812 703.348 199.093 701.209 196.418 701.209C194.933 701.209 193.771 701.902 193.156 703.064H193V701.395H190.88V715.535ZM195.822 710.369C194.054 710.369 192.961 708.973 192.961 706.707V706.688C192.961 704.422 194.054 703.025 195.822 703.025C197.589 703.025 198.654 704.402 198.654 706.688V706.707C198.654 708.982 197.589 710.369 195.822 710.369ZM203.061 715.535H205.18V710.32H205.336C205.903 711.463 207.143 712.176 208.598 712.176C211.293 712.176 212.993 710.066 212.993 706.707V706.688C212.993 703.348 211.274 701.209 208.598 701.209C207.114 701.209 205.952 701.902 205.336 703.064H205.18V701.395H203.061V715.535ZM208.002 710.369C206.235 710.369 205.141 708.973 205.141 706.707V706.688C205.141 704.422 206.235 703.025 208.002 703.025C209.77 703.025 210.834 704.402 210.834 706.688V706.707C210.834 708.982 209.77 710.369 208.002 710.369ZM215.339 712H217.458V697.234H215.339V712ZM221.348 715.73C223.496 715.73 224.57 714.939 225.469 712.41L229.414 701.395H227.188L224.541 709.871H224.355L221.699 701.395H219.414L223.262 712.01L223.105 712.557C222.793 713.631 222.197 714.051 221.211 714.051C220.967 714.051 220.703 714.041 220.498 714.012V715.682C220.771 715.711 221.084 715.73 221.348 715.73Z" fill="#131A29"/>
<path d="M645 705H657" stroke="#656565" stroke-width="2" stroke-linecap="round" stroke-linejoin="round"/>
<path d="M923 705.611L927.923 710.5L939 699.5" stroke="#0095FF" stroke-width="2" stroke-linecap="round" stroke-linejoin="round"/>
<rect x="0.5" y="664.5" width="1086" height="81" stroke="#C8E7FF"/>
</svg>
